<?xml version='1.0' encoding='utf-8'?>
<svg xmlns="http://www.w3.org/2000/svg" width="368.0" height="367.99999999999994" viewBox="121.914062 80.97265600000003 368.0 367.99999999999994">
<defs>
<g>
<g id="glyph-0-0">
<path d="M 2.171875 -7.0625 L 0.0625 0 L 0.71875 0 L 1.3125 -2.0625 L 3.796875 -2.0625 L 4.375 0 L 5.046875 0 L 3 -7.0625 Z M 3.65625 -2.578125 L 1.453125 -2.578125 L 2.25 -5.328125 L 2.296875 -5.515625 L 2.421875 -6 C 2.515625 -6.34375 2.546875 -6.46875 2.578125 -6.65625 C 2.6875 -6.109375 2.71875 -5.984375 2.875 -5.3125 Z M 3.65625 -2.578125 " />
</g>
<g id="glyph-0-1">
<path d="M 0.65625 -7.0625 L 0.65625 0 L 2.453125 0 C 3 0 3.46875 -0.078125 3.734375 -0.21875 C 4.359375 -0.53125 4.734375 -1.1875 4.734375 -1.984375 C 4.734375 -2.953125 4.21875 -3.609375 3.328125 -3.71875 C 4.078125 -3.90625 4.484375 -4.46875 4.484375 -5.3125 C 4.484375 -6.0625 4.125 -6.671875 3.53125 -6.921875 C 3.234375 -7.03125 2.984375 -7.0625 2.109375 -7.0625 Z M 1.28125 -6.546875 L 1.984375 -6.546875 C 2.6875 -6.546875 2.84375 -6.53125 3.046875 -6.484375 C 3.5625 -6.34375 3.84375 -5.90625 3.84375 -5.265625 C 3.84375 -4.734375 3.640625 -4.328125 3.28125 -4.109375 C 3.046875 -3.96875 2.78125 -3.9375 2.0625 -3.9375 L 1.28125 -3.9375 Z M 1.28125 -3.4375 L 2.046875 -3.4375 C 2.78125 -3.4375 2.984375 -3.421875 3.1875 -3.34375 C 3.765625 -3.171875 4.09375 -2.6875 4.09375 -2 C 4.09375 -1.390625 3.859375 -0.9375 3.4375 -0.703125 C 3.203125 -0.578125 2.875 -0.515625 2.203125 -0.515625 L 1.28125 -0.515625 Z M 1.28125 -3.4375 " />
</g>
<g id="glyph-0-2">
<path d="M 4.15625 -2.390625 C 4.09375 -1.125 3.5625 -0.40625 2.6875 -0.40625 C 1.5625 -0.40625 1.0625 -1.34375 1.0625 -3.46875 C 1.0625 -5.703125 1.5625 -6.65625 2.6875 -6.65625 C 3.203125 -6.65625 3.59375 -6.453125 3.828125 -6.046875 C 3.984375 -5.75 4.078125 -5.375 4.09375 -5.015625 L 4.71875 -5.015625 C 4.671875 -6.40625 3.953125 -7.1875 2.703125 -7.1875 C 1.875 -7.1875 1.234375 -6.796875 0.875 -6.109375 C 0.578125 -5.515625 0.421875 -4.671875 0.421875 -3.484375 C 0.421875 -1 1.109375 0.109375 2.671875 0.109375 C 3.46875 0.109375 3.96875 -0.140625 4.359375 -0.796875 C 4.625 -1.25 4.78125 -1.8125 4.78125 -2.390625 Z M 4.15625 -2.390625 " />
</g>
<g id="glyph-0-3">
<path d="M 0.65625 -7.0625 L 0.65625 0 L 2.28125 0 C 3.203125 0 3.703125 -0.1875 4.125 -0.671875 C 4.65625 -1.265625 4.90625 -2.265625 4.90625 -3.71875 C 4.90625 -5.15625 4.609375 -6.0625 3.96875 -6.59375 C 3.546875 -6.9375 3.03125 -7.0625 2.03125 -7.0625 Z M 1.28125 -6.546875 L 2.0625 -6.546875 C 2.8125 -6.546875 3.265625 -6.4375 3.5625 -6.140625 C 4.046875 -5.703125 4.265625 -4.953125 4.265625 -3.671875 C 4.265625 -2.359375 4.0625 -1.5 3.640625 -1 C 3.34375 -0.65625 2.90625 -0.515625 2.171875 -0.515625 L 1.28125 -0.515625 Z M 1.28125 -6.546875 " />
</g>
<g id="glyph-0-4">
<path d="M 0.65625 -7.0625 L 0.65625 0 L 4.25 0 L 4.25 -0.546875 L 1.28125 -0.546875 L 1.28125 -3.40625 L 3.96875 -3.40625 L 3.96875 -3.96875 L 1.28125 -3.96875 L 1.28125 -6.515625 L 4.140625 -6.515625 L 4.140625 -7.0625 Z M 0.65625 -7.0625 " />
</g>
<g id="glyph-0-5">
<path d="M 0.65625 -7.0625 L 0.65625 0 L 1.28125 0 L 1.28125 -3.421875 L 3.96875 -3.421875 L 3.96875 -3.96875 L 1.28125 -3.96875 L 1.28125 -6.515625 L 4.125 -6.515625 L 4.125 -7.0625 Z M 0.65625 -7.0625 " />
</g>
<g id="glyph-0-6">
<path d="M 2.515625 -3.609375 L 2.515625 -3.078125 L 4.1875 -3.078125 C 4.1875 -2.28125 4.140625 -1.875 4 -1.4375 C 3.78125 -0.78125 3.296875 -0.40625 2.6875 -0.40625 C 1.578125 -0.40625 1.0625 -1.359375 1.0625 -3.4375 C 1.0625 -5.703125 1.546875 -6.65625 2.6875 -6.65625 C 3.515625 -6.65625 4.015625 -6.109375 4.0625 -5.09375 L 4.703125 -5.09375 C 4.65625 -6.421875 3.90625 -7.1875 2.6875 -7.1875 C 1.140625 -7.1875 0.421875 -6.015625 0.421875 -3.46875 C 0.421875 -1.078125 1.140625 0.109375 2.59375 0.109375 C 3.46875 0.109375 4.0625 -0.375 4.296875 -1.296875 L 4.296875 -1.203125 C 4.28125 -0.8125 4.28125 -0.8125 4.28125 -0.515625 L 4.28125 0 L 4.78125 0 L 4.78125 -3.609375 Z M 2.515625 -3.609375 " />
</g>
<g id="glyph-0-7">
<path d="M 1.28125 -4.0625 L 1.28125 -7.0625 L 0.65625 -7.0625 L 0.65625 0 L 1.28125 0 L 1.28125 -3.5 L 4.0625 -3.5 L 4.0625 0 L 4.6875 0 L 4.6875 -7.0625 L 4.0625 -7.0625 L 4.0625 -4.0625 Z M 1.28125 -4.0625 " />
</g>
<g id="glyph-0-8">
<path d="M 0.1875 -2.0625 L 0.1875 -1.921875 C 0.1875 -0.515625 0.671875 0.125 1.765625 0.125 C 2.515625 0.125 3.015625 -0.140625 3.28125 -0.671875 C 3.421875 -0.96875 3.46875 -1.359375 3.46875 -2.140625 L 3.46875 -7.0625 L 2.84375 -7.0625 L 2.84375 -2.140625 C 2.84375 -1.625 2.84375 -1.375 2.796875 -1.1875 C 2.6875 -0.65625 2.34375 -0.390625 1.796875 -0.390625 C 1.390625 -0.390625 1.109375 -0.578125 0.9375 -0.921875 C 0.828125 -1.15625 0.796875 -1.453125 0.796875 -2.0625 Z M 0.1875 -2.0625 " />
</g>
<g id="glyph-0-9">
<path d="M 0.65625 -7.0625 L 0.65625 0 L 1.28125 0 L 1.28125 -2.484375 L 2.109375 -3.578125 L 4.1875 0 L 4.890625 0 L 2.515625 -4.09375 L 4.6875 -7.0625 L 4 -7.0625 L 1.8125 -4.125 C 1.71875 -3.984375 1.625 -3.828125 1.53125 -3.703125 C 1.46875 -3.609375 1.359375 -3.453125 1.265625 -3.28125 C 1.28125 -3.46875 1.28125 -3.609375 1.28125 -4.140625 L 1.28125 -7.0625 Z M 0.65625 -7.0625 " />
</g>
<g id="glyph-0-10">
<path d="M 0.65625 -7.0625 L 0.65625 0 L 4.234375 0 L 4.234375 -0.546875 L 1.28125 -0.546875 L 1.28125 -7.0625 Z M 0.65625 -7.0625 " />
</g>
<g id="glyph-0-11">
<path d="M 0.65625 -7.0625 L 0.65625 0 L 1.265625 0 L 1.265625 -5.046875 C 1.265625 -5.546875 1.234375 -6.296875 1.203125 -6.65625 L 1.25 -6.65625 C 1.40625 -5.96875 1.53125 -5.4375 1.625 -5.109375 C 1.65625 -4.984375 1.6875 -4.84375 1.734375 -4.671875 L 3.109375 0 L 3.703125 0 L 5.046875 -4.703125 C 5.328125 -5.765625 5.421875 -6.140625 5.53125 -6.65625 L 5.578125 -6.65625 C 5.546875 -6.265625 5.53125 -5.671875 5.53125 -5.359375 L 5.53125 0 L 6.140625 0 L 6.140625 -7.0625 L 5.109375 -7.0625 L 3.78125 -2.484375 C 3.578125 -1.71875 3.4375 -0.96875 3.40625 -0.625 C 3.375 -1.140625 3.234375 -1.765625 2.890625 -3.015625 L 1.65625 -7.0625 Z M 0.65625 -7.0625 " />
</g>
<g id="glyph-0-12">
<path d="M 0.84375 -5.40625 C 1.609375 -5.40625 1.671875 -5.40625 2.09375 -5.421875 L 2.421875 -5.4375 L 2.421875 0 L 3.046875 0 L 3.046875 -7.046875 L 2.546875 -7.046875 C 2.453125 -6.203125 1.953125 -5.859375 0.84375 -5.84375 Z M 0.84375 -5.40625 " />
</g>
<g id="glyph-0-13">
<path d="M 1.6875 -3.78125 C 0.875 -3.59375 0.375 -2.90625 0.375 -1.921875 C 0.375 -0.65625 1.140625 0.140625 2.359375 0.140625 C 3.59375 0.140625 4.34375 -0.65625 4.34375 -1.953125 C 4.34375 -2.9375 3.90625 -3.578125 3.078125 -3.765625 C 3.71875 -3.921875 4.140625 -4.53125 4.140625 -5.328125 C 4.140625 -6.40625 3.46875 -7.0625 2.375 -7.0625 C 1.296875 -7.0625 0.609375 -6.375 0.609375 -5.3125 C 0.609375 -4.53125 1.046875 -3.90625 1.6875 -3.78125 Z M 2.359375 -6.5625 C 3.078125 -6.5625 3.5 -6.09375 3.5 -5.265625 C 3.5 -4.484375 3.078125 -4.015625 2.375 -4.015625 C 1.671875 -4.015625 1.234375 -4.5 1.234375 -5.28125 C 1.234375 -6.078125 1.671875 -6.5625 2.359375 -6.5625 Z M 2.34375 -3.5 C 3.203125 -3.5 3.703125 -2.9375 3.703125 -1.96875 C 3.703125 -0.96875 3.203125 -0.359375 2.359375 -0.359375 C 1.515625 -0.359375 1.015625 -0.96875 1.015625 -1.953125 C 1.015625 -2.90625 1.53125 -3.5 2.34375 -3.5 Z M 2.34375 -3.5 " />
</g>
<g id="glyph-0-14">
<path d="M 0.609375 -1.015625 L 0.609375 0 L 1.265625 0 L 1.265625 -1.015625 Z M 0.609375 -1.015625 " />
</g>
<g id="glyph-0-15">
<path d="M 0.375 -1.890625 C 0.359375 -0.640625 1.109375 0.140625 2.265625 0.140625 C 3.53125 0.140625 4.296875 -0.671875 4.296875 -1.984375 C 4.296875 -2.953125 3.78125 -3.59375 2.90625 -3.703125 C 3.640625 -3.828125 4.0625 -4.4375 4.0625 -5.296875 C 4.0625 -6.390625 3.390625 -7.0625 2.28125 -7.0625 C 1.140625 -7.0625 0.484375 -6.359375 0.484375 -5.09375 L 1.078125 -5.09375 C 1.078125 -6 1.53125 -6.5625 2.28125 -6.5625 C 3.015625 -6.5625 3.4375 -6.078125 3.4375 -5.25 C 3.4375 -4.328125 2.984375 -3.90625 2.015625 -3.90625 L 1.8125 -3.90625 L 1.8125 -3.4375 C 1.9375 -3.4375 2.015625 -3.4375 2.109375 -3.4375 C 2.546875 -3.4375 2.84375 -3.375 3.046875 -3.25 C 3.4375 -3.015625 3.671875 -2.546875 3.671875 -1.953125 C 3.671875 -0.96875 3.140625 -0.359375 2.28125 -0.359375 C 1.484375 -0.359375 1.03125 -0.890625 0.984375 -1.890625 Z M 0.375 -1.890625 " />
</g>
<g id="glyph-0-16">
<path d="M 0.390625 -6.921875 L 0.390625 -6.359375 L 3.203125 -6.359375 C 3.484375 -6.359375 3.703125 -6.359375 3.796875 -6.390625 C 2.46875 -4.9375 1.3125 -2.140625 1.15625 0 L 1.828125 0 C 2 -2.21875 2.984375 -4.71875 4.328125 -6.375 L 4.328125 -6.921875 Z M 0.390625 -6.921875 " />
</g>
<g id="glyph-0-17">
<path d="M 0.390625 -1.796875 C 0.375 -0.59375 1.09375 0.140625 2.25 0.140625 C 3.53125 0.140625 4.296875 -0.78125 4.296875 -2.3125 C 4.296875 -3.703125 3.59375 -4.59375 2.453125 -4.59375 C 1.859375 -4.59375 1.375 -4.328125 1.078125 -3.875 C 1.109375 -4 1.140625 -4.25 1.1875 -4.625 L 1.375 -6.375 L 3.984375 -6.375 L 3.984375 -6.921875 L 0.90625 -6.921875 L 0.53125 -3.296875 L 1.09375 -3.265625 C 1.3125 -3.796875 1.71875 -4.09375 2.28125 -4.09375 C 3.171875 -4.09375 3.671875 -3.4375 3.671875 -2.28125 C 3.671875 -1.078125 3.140625 -0.359375 2.265625 -0.359375 C 1.5 -0.359375 1.015625 -0.90625 1 -1.796875 Z M 0.390625 -1.796875 " />
</g>
<g id="glyph-0-18">
<path d="M 4.1875 -5.4375 C 4.140625 -6.46875 3.515625 -7.0625 2.5 -7.0625 C 1.734375 -7.0625 1.171875 -6.71875 0.8125 -6 C 0.53125 -5.40625 0.40625 -4.59375 0.40625 -3.28125 C 0.40625 -2.15625 0.515625 -1.421875 0.734375 -0.921875 C 1.0625 -0.21875 1.625 0.140625 2.390625 0.140625 C 3.640625 0.140625 4.390625 -0.765625 4.390625 -2.265625 C 4.390625 -3.671875 3.703125 -4.515625 2.5625 -4.515625 C 1.765625 -4.515625 1.28125 -4.140625 0.984375 -3.34375 C 1.046875 -4.484375 1.109375 -4.921875 1.203125 -5.328125 C 1.40625 -6.171875 1.828125 -6.5625 2.46875 -6.5625 C 3.125 -6.5625 3.546875 -6.140625 3.578125 -5.4375 Z M 2.40625 -4.015625 C 3.28125 -4.015625 3.765625 -3.375 3.765625 -2.21875 C 3.765625 -1.0625 3.25 -0.359375 2.421875 -0.359375 C 1.609375 -0.359375 1.109375 -1.078125 1.109375 -2.28125 C 1.109375 -3.34375 1.609375 -4.015625 2.40625 -4.015625 Z M 2.40625 -4.015625 " />
</g>
<g id="glyph-0-19">
<path d="M 1.0625 -4.875 C 1.109375 -6 1.53125 -6.5625 2.375 -6.5625 C 3.140625 -6.5625 3.609375 -6.03125 3.609375 -5.15625 C 3.609375 -4.421875 3.359375 -3.96875 2.578125 -3.328125 C 0.875 -1.96875 0.484375 -1.359375 0.4375 0 L 4.3125 0 L 4.3125 -0.546875 L 1.5 -0.546875 C 1.234375 -0.546875 1.1875 -0.546875 1.0625 -0.515625 C 1.265625 -1.328125 1.515625 -1.71875 2.34375 -2.390625 C 3.390625 -3.25 3.390625 -3.25 3.671875 -3.578125 C 4.0625 -4 4.25 -4.515625 4.25 -5.140625 C 4.25 -6.34375 3.5625 -7.0625 2.390625 -7.0625 C 1.140625 -7.0625 0.484375 -6.3125 0.46875 -4.875 Z M 1.0625 -4.875 " />
</g>
<g id="glyph-0-20">
<path d="M 0.546875 -1.5 C 0.59375 -0.484375 1.234375 0.140625 2.234375 0.140625 C 3.015625 0.140625 3.5625 -0.21875 3.9375 -0.953125 C 4.203125 -1.53125 4.328125 -2.359375 4.328125 -3.640625 C 4.328125 -4.765625 4.234375 -5.53125 4 -6 C 3.671875 -6.703125 3.109375 -7.0625 2.359375 -7.0625 C 1.109375 -7.0625 0.34375 -6.140625 0.34375 -4.65625 C 0.34375 -3.265625 1.03125 -2.421875 2.1875 -2.421875 C 2.703125 -2.421875 3.171875 -2.609375 3.40625 -2.9375 C 3.53125 -3.109375 3.625 -3.28125 3.765625 -3.625 L 3.75 -3.453125 C 3.640625 -1.921875 3.609375 -1.71875 3.40625 -1.203125 C 3.203125 -0.640625 2.8125 -0.359375 2.25 -0.359375 C 1.609375 -0.359375 1.203125 -0.796875 1.171875 -1.5 Z M 2.296875 -6.5625 C 3.140625 -6.5625 3.640625 -5.859375 3.640625 -4.640625 C 3.640625 -3.5625 3.140625 -2.90625 2.3125 -2.90625 C 1.484375 -2.90625 0.984375 -3.578125 0.984375 -4.703125 C 0.984375 -5.84375 1.5 -6.5625 2.296875 -6.5625 Z M 2.296875 -6.5625 " />
</g>
<g id="glyph-0-21">
<path d="M 2.421875 -7.0625 C 1.625 -7.0625 1.0625 -6.6875 0.734375 -5.96875 C 0.5 -5.40625 0.390625 -4.625 0.390625 -3.4375 C 0.390625 -2.390625 0.46875 -1.6875 0.640625 -1.15625 C 0.90625 -0.3125 1.5 0.140625 2.3125 0.140625 C 3.765625 0.140625 4.34375 -0.90625 4.34375 -3.625 C 4.34375 -4.765625 4.21875 -5.578125 3.96875 -6.09375 C 3.671875 -6.734375 3.125 -7.0625 2.421875 -7.0625 Z M 2.375 -6.5625 C 3.359375 -6.5625 3.703125 -5.78125 3.703125 -3.578125 C 3.703125 -1.15625 3.375 -0.359375 2.328125 -0.359375 C 1.390625 -0.359375 1.03125 -1.15625 1.03125 -3.28125 C 1.03125 -4.328125 1.0625 -4.9375 1.171875 -5.34375 C 1.34375 -6.15625 1.765625 -6.5625 2.375 -6.5625 Z M 2.375 -6.5625 " />
</g>
<g id="glyph-0-22">
<path d="M 0.328125 -1.796875 L 3.03125 -1.796875 L 3.03125 0 L 3.640625 0 L 3.640625 -1.796875 L 4.453125 -1.796875 L 4.453125 -2.328125 L 3.640625 -2.328125 L 3.640625 -7.046875 L 3.015625 -7.046875 L 0.328125 -2.40625 Z M 2.75 -5.59375 C 2.921875 -5.90625 3.03125 -6.125 3.109375 -6.265625 C 3.078125 -6.0625 3.046875 -5.6875 3.03125 -5.171875 L 3.03125 -2.328125 L 1.328125 -2.328125 C 1.03125 -2.328125 0.9375 -2.328125 0.8125 -2.3125 C 0.890625 -2.40625 0.90625 -2.421875 0.96875 -2.515625 C 1.03125 -2.625 1.09375 -2.71875 1.109375 -2.78125 Z M 2.75 -5.59375 " />
</g>
<g id="glyph-1-0">
<path d="M 2.046875 -6.671875 L 0.0625 0 L 0.6875 0 L 1.234375 -1.953125 L 3.578125 -1.953125 L 4.125 0 L 4.765625 0 L 2.828125 -6.671875 Z M 3.453125 -2.4375 L 1.375 -2.4375 L 2.125 -5.03125 L 2.171875 -5.203125 L 2.296875 -5.65625 C 2.375 -5.984375 2.40625 -6.09375 2.4375 -6.28125 C 2.53125 -5.765625 2.5625 -5.65625 2.71875 -5.015625 Z M 3.453125 -2.4375 " />
</g>
<g id="glyph-1-1">
<path d="M 0.625 -6.671875 L 0.625 0 L 1.1875 0 L 1.1875 -4.765625 C 1.1875 -5.234375 1.171875 -5.9375 1.140625 -6.28125 L 1.1875 -6.28125 C 1.328125 -5.625 1.453125 -5.140625 1.53125 -4.8125 C 1.5625 -4.703125 1.59375 -4.5625 1.640625 -4.40625 L 2.9375 0 L 3.484375 0 L 4.765625 -4.4375 C 5.03125 -5.4375 5.125 -5.796875 5.21875 -6.28125 L 5.265625 -6.28125 C 5.234375 -5.921875 5.21875 -5.34375 5.21875 -5.0625 L 5.21875 0 L 5.796875 0 L 5.796875 -6.671875 L 4.828125 -6.671875 L 3.5625 -2.34375 C 3.375 -1.625 3.234375 -0.90625 3.21875 -0.59375 C 3.1875 -1.0625 3.046875 -1.671875 2.734375 -2.84375 L 1.5625 -6.671875 Z M 0.625 -6.671875 " />
</g>
<g id="glyph-1-2">
<path d="M 0.625 -6.671875 L 0.625 0 L 2.3125 0 C 2.828125 0 3.265625 -0.0625 3.53125 -0.203125 C 4.125 -0.5 4.46875 -1.125 4.46875 -1.875 C 4.46875 -2.796875 3.984375 -3.40625 3.140625 -3.515625 C 3.84375 -3.6875 4.234375 -4.21875 4.234375 -5.015625 C 4.234375 -5.71875 3.890625 -6.296875 3.34375 -6.53125 C 3.0625 -6.640625 2.8125 -6.671875 1.984375 -6.671875 Z M 1.203125 -6.1875 L 1.875 -6.1875 C 2.546875 -6.1875 2.6875 -6.171875 2.875 -6.125 C 3.359375 -5.984375 3.625 -5.5625 3.625 -4.96875 C 3.625 -4.46875 3.4375 -4.078125 3.09375 -3.875 C 2.875 -3.75 2.625 -3.703125 1.9375 -3.703125 L 1.203125 -3.703125 Z M 1.203125 -3.25 L 1.9375 -3.25 C 2.625 -3.234375 2.8125 -3.234375 3.015625 -3.15625 C 3.546875 -2.984375 3.859375 -2.53125 3.859375 -1.890625 C 3.859375 -1.3125 3.65625 -0.890625 3.25 -0.671875 C 3.015625 -0.546875 2.703125 -0.484375 2.078125 -0.484375 L 1.203125 -0.484375 Z M 1.203125 -3.25 " />
</g>
<g id="glyph-1-3">
<path d="M 3.921875 -2.265625 C 3.875 -1.0625 3.375 -0.375 2.53125 -0.375 C 1.484375 -0.375 1.015625 -1.265625 1.015625 -3.28125 C 1.015625 -5.375 1.46875 -6.296875 2.546875 -6.296875 C 3.03125 -6.296875 3.390625 -6.09375 3.609375 -5.703125 C 3.765625 -5.4375 3.84375 -5.078125 3.859375 -4.734375 L 4.453125 -4.734375 C 4.40625 -6.046875 3.734375 -6.78125 2.546875 -6.78125 C 1.765625 -6.78125 1.15625 -6.421875 0.828125 -5.765625 C 0.546875 -5.203125 0.40625 -4.40625 0.40625 -3.296875 C 0.40625 -0.9375 1.046875 0.109375 2.515625 0.109375 C 3.28125 0.109375 3.75 -0.140625 4.109375 -0.75 C 4.375 -1.1875 4.515625 -1.703125 4.515625 -2.265625 Z M 3.921875 -2.265625 " />
</g>
<g id="glyph-1-4">
<path d="M 0.625 -6.671875 L 0.625 0 L 4.015625 0 L 4.015625 -0.515625 L 1.203125 -0.515625 L 1.203125 -3.21875 L 3.75 -3.21875 L 3.75 -3.734375 L 1.203125 -3.734375 L 1.203125 -6.15625 L 3.90625 -6.15625 L 3.90625 -6.671875 Z M 0.625 -6.671875 " />
</g>
<g id="glyph-1-5">
<path d="M 0.625 -6.671875 L 0.625 0 L 2.15625 0 C 3.03125 0 3.5 -0.171875 3.890625 -0.625 C 4.390625 -1.203125 4.625 -2.140625 4.625 -3.515625 C 4.625 -4.875 4.34375 -5.71875 3.75 -6.21875 C 3.34375 -6.546875 2.859375 -6.671875 1.921875 -6.671875 Z M 1.203125 -6.1875 L 1.9375 -6.1875 C 2.65625 -6.1875 3.078125 -6.0625 3.375 -5.796875 C 3.8125 -5.390625 4.015625 -4.6875 4.015625 -3.46875 C 4.015625 -2.234375 3.828125 -1.421875 3.4375 -0.953125 C 3.15625 -0.625 2.75 -0.484375 2.046875 -0.484375 L 1.203125 -0.484375 Z M 1.203125 -6.1875 " />
</g>
<g id="glyph-1-6">
<path d="M 0.625 -6.671875 L 0.625 0 L 3.984375 0 L 3.984375 -0.515625 L 1.203125 -0.515625 L 1.203125 -6.671875 Z M 0.625 -6.671875 " />
</g>
<g id="glyph-1-7">
<path d="M 2.375 -3.40625 L 2.375 -2.90625 L 3.953125 -2.90625 C 3.953125 -2.15625 3.90625 -1.765625 3.765625 -1.34375 C 3.5625 -0.734375 3.109375 -0.375 2.53125 -0.375 C 1.484375 -0.375 1.015625 -1.296875 1.015625 -3.234375 C 1.015625 -5.390625 1.453125 -6.296875 2.546875 -6.296875 C 3.3125 -6.296875 3.796875 -5.765625 3.84375 -4.8125 L 4.4375 -4.8125 C 4.390625 -6.0625 3.6875 -6.78125 2.546875 -6.78125 C 1.0625 -6.78125 0.40625 -5.6875 0.40625 -3.28125 C 0.40625 -1.015625 1.078125 0.109375 2.453125 0.109375 C 3.265625 0.109375 3.828125 -0.34375 4.0625 -1.21875 L 4.046875 -1.140625 C 4.046875 -0.765625 4.046875 -0.765625 4.046875 -0.484375 L 4.046875 0 L 4.515625 0 L 4.515625 -3.40625 Z M 2.375 -3.40625 " />
</g>
<g id="glyph-1-8">
<path d="M 0.625 -6.671875 L 0.625 0 L 1.203125 0 L 1.203125 -3.234375 L 3.734375 -3.234375 L 3.734375 -3.75 L 1.203125 -3.75 L 1.203125 -6.15625 L 3.90625 -6.15625 L 3.90625 -6.671875 Z M 0.625 -6.671875 " />
</g>
<g id="glyph-1-9">
<path d="M 0.171875 -1.953125 L 0.171875 -1.8125 C 0.171875 -0.484375 0.640625 0.125 1.671875 0.125 C 2.375 0.125 2.84375 -0.125 3.09375 -0.640625 C 3.234375 -0.921875 3.28125 -1.296875 3.28125 -2.015625 L 3.28125 -6.671875 L 2.6875 -6.671875 L 2.6875 -2.015625 C 2.6875 -1.53125 2.6875 -1.296875 2.640625 -1.125 C 2.53125 -0.625 2.203125 -0.375 1.6875 -0.375 C 1.3125 -0.375 1.046875 -0.546875 0.890625 -0.875 C 0.78125 -1.09375 0.75 -1.375 0.75 -1.953125 Z M 0.171875 -1.953125 " />
</g>
<g id="glyph-1-10">
<path d="M 0.625 -6.671875 L 0.625 0 L 1.203125 0 L 1.203125 -2.34375 L 1.984375 -3.375 L 3.953125 0 L 4.625 0 L 2.375 -3.875 L 4.4375 -6.671875 L 3.765625 -6.671875 L 1.703125 -3.90625 C 1.625 -3.765625 1.53125 -3.625 1.4375 -3.484375 C 1.375 -3.40625 1.296875 -3.265625 1.1875 -3.09375 C 1.203125 -3.265625 1.203125 -3.40625 1.203125 -3.90625 L 1.203125 -6.671875 Z M 0.625 -6.671875 " />
</g>
<g id="glyph-2-0">
<path d="M 8.9375 -10.171875 L 7.140625 0 L 6.109375 0 L 4.671875 -8.453125 L 3.25 0 L 2.25 0 L 0.421875 -10.171875 L 1.359375 -10.171875 L 2.8125 -1.71875 L 4.234375 -10.171875 L 5.171875 -10.171875 L 6.609375 -1.640625 L 8.046875 -10.171875 Z M 8.9375 -10.171875 " />
</g>
<g id="glyph-2-1">
<path d="M 5.015625 0 L 1.28125 0 L 1.28125 -1.046875 L 2.71875 -1.046875 L 2.71875 -7.859375 L 1.28125 -7.859375 L 1.28125 -8.796875 C 1.476562 -8.796875 1.6875 -8.816406 1.90625 -8.859375 C 2.132812 -8.910156 2.300781 -8.984375 2.40625 -9.078125 C 2.550781 -9.191406 2.664062 -9.332031 2.75 -9.5 C 2.832031 -9.675781 2.878906 -9.914062 2.890625 -10.21875 L 3.609375 -10.21875 L 3.609375 -1.046875 L 5.015625 -1.046875 Z M 5.015625 0 " />
</g>
<g id="glyph-2-2">
<path d="M 3.59375 -3.828125 L 0.703125 -3.828125 L 0.703125 -5.078125 L 3.59375 -5.078125 Z M 3.59375 -3.828125 " />
</g>
<g id="glyph-2-3">
<path d="M 4.796875 -4.90625 C 4.941406 -4.707031 5.0625 -4.457031 5.15625 -4.15625 C 5.257812 -3.863281 5.3125 -3.484375 5.3125 -3.015625 C 5.3125 -2.546875 5.253906 -2.117188 5.140625 -1.734375 C 5.023438 -1.347656 4.863281 -1.007812 4.65625 -0.71875 C 4.425781 -0.40625 4.15625 -0.171875 3.84375 -0.015625 C 3.53125 0.140625 3.1875 0.21875 2.8125 0.21875 C 2.425781 0.21875 2.046875 0.148438 1.671875 0.015625 C 1.304688 -0.117188 1.003906 -0.269531 0.765625 -0.4375 L 0.765625 -1.859375 L 0.84375 -1.859375 C 1.101562 -1.609375 1.410156 -1.394531 1.765625 -1.21875 C 2.117188 -1.050781 2.460938 -0.96875 2.796875 -0.96875 C 2.984375 -0.96875 3.1875 -1.015625 3.40625 -1.109375 C 3.625 -1.210938 3.800781 -1.351562 3.9375 -1.53125 C 4.082031 -1.738281 4.1875 -1.960938 4.25 -2.203125 C 4.320312 -2.441406 4.359375 -2.75 4.359375 -3.125 C 4.359375 -3.488281 4.316406 -3.785156 4.234375 -4.015625 C 4.160156 -4.253906 4.054688 -4.445312 3.921875 -4.59375 C 3.785156 -4.726562 3.617188 -4.820312 3.421875 -4.875 C 3.222656 -4.925781 3.007812 -4.953125 2.78125 -4.953125 L 2.359375 -4.953125 L 2.359375 -6.09375 L 2.6875 -6.09375 C 3.15625 -6.09375 3.523438 -6.234375 3.796875 -6.515625 C 4.078125 -6.804688 4.21875 -7.234375 4.21875 -7.796875 C 4.21875 -8.035156 4.179688 -8.25 4.109375 -8.4375 C 4.046875 -8.625 3.953125 -8.773438 3.828125 -8.890625 C 3.691406 -9.015625 3.546875 -9.097656 3.390625 -9.140625 C 3.242188 -9.179688 3.078125 -9.203125 2.890625 -9.203125 C 2.597656 -9.203125 2.285156 -9.125 1.953125 -8.96875 C 1.617188 -8.820312 1.304688 -8.601562 1.015625 -8.3125 L 0.96875 -8.3125 L 0.96875 -9.75 C 1.1875 -9.90625 1.476562 -10.050781 1.84375 -10.1875 C 2.207031 -10.320312 2.5625 -10.390625 2.90625 -10.390625 C 3.238281 -10.390625 3.53125 -10.34375 3.78125 -10.25 C 4.039062 -10.164062 4.273438 -10.019531 4.484375 -9.8125 C 4.710938 -9.59375 4.882812 -9.328125 5 -9.015625 C 5.113281 -8.710938 5.171875 -8.351562 5.171875 -7.9375 C 5.171875 -7.375 5.035156 -6.878906 4.765625 -6.453125 C 4.492188 -6.035156 4.175781 -5.769531 3.8125 -5.65625 L 3.8125 -5.5625 C 3.957031 -5.53125 4.125 -5.453125 4.3125 -5.328125 C 4.5 -5.210938 4.660156 -5.070312 4.796875 -4.90625 Z M 4.796875 -4.90625 " />
</g>
<g id="glyph-2-4">
<path d="M 6.625 0 L 5.4375 0 L 3.125 -4.046875 L 1.84375 -4.046875 L 1.84375 0 L 0.921875 0 L 0.921875 -10.171875 L 2.859375 -10.171875 C 3.273438 -10.171875 3.617188 -10.128906 3.890625 -10.046875 C 4.171875 -9.972656 4.421875 -9.832031 4.640625 -9.625 C 4.890625 -9.394531 5.082031 -9.101562 5.21875 -8.75 C 5.363281 -8.394531 5.4375 -7.945312 5.4375 -7.40625 C 5.4375 -6.675781 5.3125 -6.0625 5.0625 -5.5625 C 4.8125 -5.070312 4.46875 -4.703125 4.03125 -4.453125 Z M 4.484375 -7.3125 C 4.484375 -7.601562 4.445312 -7.859375 4.375 -8.078125 C 4.300781 -8.304688 4.1875 -8.5 4.03125 -8.65625 C 3.894531 -8.789062 3.734375 -8.882812 3.546875 -8.9375 C 3.367188 -8.988281 3.160156 -9.015625 2.921875 -9.015625 L 1.84375 -9.015625 L 1.84375 -5.171875 L 2.765625 -5.171875 C 3.054688 -5.171875 3.304688 -5.207031 3.515625 -5.28125 C 3.734375 -5.363281 3.921875 -5.503906 4.078125 -5.703125 C 4.210938 -5.898438 4.3125 -6.117188 4.375 -6.359375 C 4.445312 -6.609375 4.484375 -6.925781 4.484375 -7.3125 Z M 4.484375 -7.3125 " />
</g>
<g id="glyph-2-5">
<path d="M 5.28125 0 L 0.921875 0 L 0.921875 -10.171875 L 1.84375 -10.171875 L 1.84375 -1.203125 L 5.28125 -1.203125 Z M 5.28125 0 " />
</g>
<g id="glyph-2-6">
<path d="M 5.40625 0 L 0.75 0 L 0.75 -1.421875 C 1.070312 -1.835938 1.394531 -2.25 1.71875 -2.65625 C 2.039062 -3.070312 2.34375 -3.484375 2.625 -3.890625 C 3.21875 -4.734375 3.625 -5.40625 3.84375 -5.90625 C 4.0625 -6.40625 4.171875 -6.941406 4.171875 -7.515625 C 4.171875 -8.046875 4.050781 -8.457031 3.8125 -8.75 C 3.582031 -9.050781 3.253906 -9.203125 2.828125 -9.203125 C 2.546875 -9.203125 2.238281 -9.128906 1.90625 -8.984375 C 1.582031 -8.835938 1.269531 -8.613281 0.96875 -8.3125 L 0.921875 -8.3125 L 0.921875 -9.75 C 1.140625 -9.914062 1.429688 -10.0625 1.796875 -10.1875 C 2.160156 -10.320312 2.515625 -10.390625 2.859375 -10.390625 C 3.554688 -10.390625 4.101562 -10.132812 4.5 -9.625 C 4.90625 -9.125 5.109375 -8.445312 5.109375 -7.59375 C 5.109375 -7.195312 5.078125 -6.832031 5.015625 -6.5 C 4.953125 -6.164062 4.851562 -5.847656 4.71875 -5.546875 C 4.601562 -5.265625 4.460938 -4.988281 4.296875 -4.71875 C 4.140625 -4.445312 3.941406 -4.144531 3.703125 -3.8125 C 3.378906 -3.332031 3.039062 -2.867188 2.6875 -2.421875 C 2.332031 -1.972656 2.003906 -1.554688 1.703125 -1.171875 L 5.40625 -1.171875 Z M 5.40625 0 " />
</g>
<g id="glyph-2-7">
<path d="M 5.5625 -2.859375 L 4.546875 -2.859375 L 4.546875 0 L 3.65625 0 L 3.65625 -2.859375 L 0.359375 -2.859375 L 0.359375 -4.4375 L 3.6875 -10.171875 L 4.546875 -10.171875 L 4.546875 -3.953125 L 5.5625 -3.953125 Z M 3.65625 -3.953125 L 3.65625 -8.546875 L 0.984375 -3.953125 Z M 3.65625 -3.953125 " />
</g>
<g id="glyph-3-0">
<path d="M 2.25 -7.34375 L 2.25 -6.609375 C 2.25 -6.34375 2.265625 -6.234375 2.28125 -6.15625 C 2.203125 -6.203125 2.09375 -6.25 1.90625 -6.328125 L 1.21875 -6.59375 L 1.0625 -6.171875 L 1.796875 -5.90625 C 1.921875 -5.859375 2.0625 -5.828125 2.15625 -5.8125 C 2.078125 -5.734375 2.078125 -5.734375 1.84375 -5.453125 L 1.390625 -4.875 L 1.765625 -4.59375 L 2.21875 -5.1875 C 2.3125 -5.328125 2.390625 -5.484375 2.484375 -5.609375 C 2.5 -5.5625 2.625 -5.359375 2.734375 -5.203125 L 3.21875 -4.59375 L 3.5625 -4.875 L 3.109375 -5.46875 C 3.03125 -5.578125 2.96875 -5.640625 2.8125 -5.8125 C 2.890625 -5.8125 3.0625 -5.875 3.1875 -5.921875 L 3.875 -6.1875 L 3.71875 -6.59375 L 3.015625 -6.328125 C 2.859375 -6.265625 2.71875 -6.1875 2.671875 -6.15625 C 2.6875 -6.28125 2.703125 -6.484375 2.703125 -6.59375 L 2.703125 -7.34375 Z M 2.25 -7.34375 " />
</g>
<g id="glyph-3-1">
<path d="M 0.265625 -2.28125 L 0.265625 -2.09375 C 0.265625 -0.625 0.984375 0.125 2.40625 0.125 C 3.765625 0.125 4.625 -0.6875 4.625 -1.96875 C 4.625 -2.953125 4.1875 -3.5 3.078125 -3.875 C 1.9375 -4.265625 1.921875 -4.265625 1.6875 -4.421875 C 1.28125 -4.6875 1.078125 -5.046875 1.078125 -5.5625 C 1.078125 -6.40625 1.59375 -6.921875 2.453125 -6.921875 C 3.34375 -6.921875 3.75 -6.453125 3.765625 -5.4375 L 4.421875 -5.4375 C 4.421875 -6.78125 3.734375 -7.453125 2.4375 -7.453125 C 1.171875 -7.453125 0.40625 -6.71875 0.40625 -5.5 C 0.40625 -4.546875 0.875 -3.984375 1.953125 -3.609375 C 3.171875 -3.203125 3.21875 -3.1875 3.46875 -2.984375 C 3.796875 -2.734375 3.953125 -2.390625 3.953125 -1.90625 C 3.953125 -0.984375 3.359375 -0.421875 2.40625 -0.421875 C 1.4375 -0.421875 0.921875 -1 0.921875 -2.109375 L 0.921875 -2.28125 Z M 0.265625 -2.28125 " />
</g>
<g id="glyph-3-2">
<path d="M 1.0625 -2.703125 L 4.03125 -2.703125 C 4.03125 -2.84375 4.03125 -2.953125 4.03125 -3.015625 C 4.03125 -4.703125 3.4375 -5.5625 2.28125 -5.5625 C 1.03125 -5.5625 0.40625 -4.609375 0.40625 -2.703125 C 0.40625 -0.78125 0.984375 0.125 2.21875 0.125 C 2.953125 0.125 3.5 -0.21875 3.765625 -0.84375 C 3.890625 -1.140625 3.96875 -1.5 3.96875 -1.78125 L 3.375 -1.78125 C 3.296875 -0.875 2.90625 -0.375 2.25 -0.375 C 1.78125 -0.375 1.4375 -0.625 1.265625 -1.078125 C 1.125 -1.453125 1.09375 -1.703125 1.0625 -2.578125 Z M 1.0625 -3.171875 C 1.0625 -3.46875 1.109375 -3.890625 1.171875 -4.125 C 1.359375 -4.75 1.734375 -5.078125 2.28125 -5.078125 C 3.03125 -5.078125 3.375 -4.484375 3.390625 -3.171875 Z M 1.0625 -3.171875 " />
</g>
<g id="glyph-3-3">
</g>
<g id="glyph-3-4">
<path d="M 1.203125 -5.4375 L 0.609375 -5.4375 L 0.609375 1.84375 L 1.25 1.84375 L 1.25 -0.015625 C 1.25 -0.46875 1.25 -0.609375 1.203125 -0.828125 C 1.546875 -0.125 1.875 0.125 2.515625 0.125 C 3.0625 0.125 3.5 -0.109375 3.8125 -0.59375 C 4.109375 -1.0625 4.25 -1.765625 4.25 -2.828125 C 4.25 -3.671875 4.140625 -4.28125 3.921875 -4.734375 C 3.65625 -5.265625 3.15625 -5.5625 2.546875 -5.5625 C 1.890625 -5.5625 1.390625 -5.1875 1.171875 -4.53125 C 1.1875 -4.71875 1.203125 -4.859375 1.203125 -5.109375 Z M 2.421875 -5.046875 C 3.25 -5.046875 3.609375 -4.34375 3.609375 -2.78125 C 3.609375 -1.140625 3.234375 -0.390625 2.40625 -0.390625 C 2 -0.390625 1.6875 -0.59375 1.484375 -0.984375 C 1.296875 -1.34375 1.203125 -1.921875 1.203125 -2.765625 C 1.203125 -3.421875 1.265625 -3.90625 1.390625 -4.234375 C 1.578125 -4.75 1.953125 -5.046875 2.421875 -5.046875 Z M 2.421875 -5.046875 " />
</g>
<g id="glyph-3-5">
<path d="M 1.078125 -3.84375 C 1.078125 -4.703125 1.390625 -5.078125 2.109375 -5.078125 C 2.78125 -5.078125 3.09375 -4.765625 3.09375 -4.09375 C 3.09375 -3.40625 3.0625 -3.375 1.953125 -3.078125 C 1.203125 -2.875 0.984375 -2.796875 0.765625 -2.609375 C 0.46875 -2.359375 0.3125 -1.921875 0.3125 -1.421875 C 0.3125 -0.453125 0.8125 0.109375 1.6875 0.109375 C 2.390625 0.109375 2.84375 -0.171875 3.125 -0.796875 C 3.109375 -0.71875 3.109375 -0.671875 3.109375 -0.640625 C 3.109375 -0.1875 3.359375 0.046875 3.8125 0.046875 C 3.953125 0.046875 4.0625 0.015625 4.203125 -0.015625 L 4.203125 -0.46875 C 4.125 -0.46875 4.078125 -0.453125 4.015625 -0.453125 C 3.75 -0.453125 3.703125 -0.578125 3.703125 -1.109375 L 3.703125 -3.78125 C 3.703125 -4.390625 3.671875 -4.625 3.59375 -4.84375 C 3.390625 -5.296875 2.859375 -5.5625 2.125 -5.5625 C 1.015625 -5.5625 0.46875 -5 0.46875 -3.84375 Z M 3.09375 -2 C 3.09375 -1.46875 3.03125 -1.1875 2.828125 -0.90625 C 2.59375 -0.578125 2.25 -0.390625 1.859375 -0.390625 C 1.28125 -0.390625 0.953125 -0.78125 0.953125 -1.453125 C 0.953125 -1.8125 1.03125 -2.0625 1.234375 -2.25 C 1.40625 -2.4375 1.5625 -2.5 2.328125 -2.703125 C 2.828125 -2.84375 2.984375 -2.921875 3.109375 -3.078125 C 3.09375 -2.953125 3.09375 -2.9375 3.09375 -2.546875 Z M 3.09375 -2 " />
</g>
<g id="glyph-3-6">
<path d="M 0.578125 0.5625 C 0.65625 1.453125 1.1875 1.90625 2.171875 1.90625 C 3.03125 1.90625 3.59375 1.53125 3.84375 0.84375 C 3.96875 0.4375 4 0.171875 4 -0.875 L 4 -5.4375 L 3.40625 -5.4375 L 3.40625 -5.1875 C 3.40625 -4.921875 3.40625 -4.875 3.421875 -4.59375 C 3.171875 -5.25 2.75 -5.5625 2.109375 -5.5625 C 0.984375 -5.5625 0.40625 -4.625 0.40625 -2.765625 C 0.40625 -0.953125 0.96875 -0.03125 2.0625 -0.03125 C 2.6875 -0.03125 3.09375 -0.3125 3.40625 -1.015625 C 3.390625 -0.78125 3.375 -0.609375 3.375 -0.484375 L 3.375 -0.09375 C 3.375 0.21875 3.296875 0.671875 3.21875 0.84375 C 3.03125 1.203125 2.671875 1.390625 2.1875 1.390625 C 1.578125 1.390625 1.25 1.125 1.1875 0.5625 Z M 2.203125 -5.046875 C 2.53125 -5.046875 2.84375 -4.890625 3.03125 -4.640625 C 3.265625 -4.328125 3.40625 -3.671875 3.40625 -2.859375 C 3.40625 -1.28125 3.015625 -0.546875 2.1875 -0.546875 C 1.390625 -0.546875 1.046875 -1.25 1.046875 -2.78125 C 1.046875 -3.453125 1.125 -4.03125 1.265625 -4.375 C 1.4375 -4.78125 1.796875 -5.046875 2.203125 -5.046875 Z M 2.203125 -5.046875 " />
</g>
<g id="glyph-3-7">
<path d="M 4.359375 -5.640625 C 4.296875 -6.703125 3.65625 -7.34375 2.59375 -7.34375 C 1.796875 -7.34375 1.21875 -6.96875 0.84375 -6.21875 C 0.546875 -5.625 0.421875 -4.765625 0.421875 -3.40625 C 0.421875 -2.25 0.53125 -1.46875 0.765625 -0.953125 C 1.109375 -0.234375 1.6875 0.140625 2.46875 0.140625 C 3.78125 0.140625 4.5625 -0.796875 4.5625 -2.359375 C 4.5625 -3.8125 3.84375 -4.6875 2.65625 -4.6875 C 1.84375 -4.6875 1.328125 -4.296875 1.015625 -3.46875 C 1.09375 -4.65625 1.140625 -5.109375 1.25 -5.53125 C 1.46875 -6.40625 1.890625 -6.8125 2.5625 -6.8125 C 3.25 -6.8125 3.6875 -6.375 3.71875 -5.640625 Z M 2.5 -4.171875 C 3.40625 -4.171875 3.90625 -3.5 3.90625 -2.296875 C 3.90625 -1.109375 3.375 -0.375 2.515625 -0.375 C 1.671875 -0.375 1.15625 -1.125 1.15625 -2.359375 C 1.15625 -3.46875 1.671875 -4.171875 2.5 -4.171875 Z M 2.5 -4.171875 " />
</g>
<g id="glyph-3-8">
<path d="M 0 -3.0625 L 0 -2.515625 L 1.984375 -2.515625 L 1.984375 -3.0625 Z M 0 -3.0625 " />
</g>
<g id="glyph-3-9">
<path d="M 1.109375 -5.0625 C 1.140625 -6.21875 1.59375 -6.8125 2.46875 -6.8125 C 3.265625 -6.8125 3.75 -6.265625 3.75 -5.34375 C 3.75 -4.59375 3.484375 -4.125 2.6875 -3.453125 C 0.90625 -2.046875 0.5 -1.40625 0.453125 0 L 4.484375 0 L 4.484375 -0.5625 L 1.5625 -0.5625 C 1.28125 -0.5625 1.234375 -0.5625 1.109375 -0.53125 C 1.3125 -1.390625 1.578125 -1.78125 2.4375 -2.484375 C 3.515625 -3.375 3.515625 -3.375 3.8125 -3.71875 C 4.21875 -4.15625 4.40625 -4.6875 4.40625 -5.328125 C 4.40625 -6.59375 3.703125 -7.34375 2.484375 -7.34375 C 1.1875 -7.34375 0.5 -6.5625 0.484375 -5.0625 Z M 1.109375 -5.0625 " />
</g>
<g id="glyph-3-10">
<path d="M 0.03125 -5.4375 L 0.03125 -4.953125 L 0.796875 -4.953125 L 0.796875 0 L 1.4375 0 L 1.4375 -4.953125 L 2.359375 -4.953125 L 2.359375 -5.4375 L 1.4375 -5.4375 C 1.40625 -6.75 1.46875 -6.84375 2.25 -6.828125 L 2.390625 -6.828125 L 2.390625 -7.359375 C 2.15625 -7.375 2.09375 -7.375 1.984375 -7.375 C 1.5 -7.375 1.21875 -7.265625 1.015625 -7 C 0.828125 -6.75 0.796875 -6.609375 0.796875 -5.4375 Z M 0.03125 -5.4375 " />
</g>
<g id="glyph-3-11">
<path d="M 2.328125 -5.5625 C 1.015625 -5.5625 0.40625 -4.65625 0.40625 -2.71875 C 0.40625 -0.765625 0.984375 0.125 2.234375 0.125 C 3.546875 0.125 4.140625 -0.765625 4.140625 -2.71875 C 4.140625 -4.65625 3.5625 -5.5625 2.328125 -5.5625 Z M 2.28125 -5.046875 C 3.140625 -5.046875 3.5 -4.359375 3.5 -2.6875 C 3.5 -1.109375 3.109375 -0.390625 2.265625 -0.390625 C 1.421875 -0.390625 1.046875 -1.09375 1.046875 -2.6875 C 1.046875 -4.3125 1.4375 -5.046875 2.28125 -5.046875 Z M 2.28125 -5.046875 " />
</g>
<g id="glyph-3-12">
<path d="M 0.609375 -5.4375 L 0.609375 0 L 1.25 0 L 1.25 -3.296875 C 1.25 -3.8125 1.28125 -4.03125 1.46875 -4.3125 C 1.734375 -4.71875 2.09375 -4.921875 2.625 -4.921875 C 2.6875 -4.921875 2.734375 -4.921875 2.84375 -4.90625 L 2.84375 -5.515625 C 2.734375 -5.53125 2.6875 -5.53125 2.609375 -5.53125 C 2.328125 -5.53125 2.09375 -5.46875 1.859375 -5.328125 C 1.609375 -5.15625 1.5 -5.03125 1.25 -4.578125 C 1.21875 -4.53125 1.203125 -4.484375 1.171875 -4.453125 C 1.1875 -4.65625 1.203125 -4.8125 1.203125 -5.171875 L 1.203125 -5.4375 Z M 0.609375 -5.4375 " />
</g>
<g id="glyph-3-13">
<path d="M 0.203125 -1.765625 C 0.203125 -1.265625 0.25 -0.921875 0.359375 -0.6875 C 0.578125 -0.171875 1.09375 0.125 1.84375 0.125 C 2.921875 0.125 3.5625 -0.46875 3.5625 -1.46875 C 3.5625 -1.96875 3.40625 -2.359375 3.078125 -2.59375 C 2.828125 -2.78125 2.59375 -2.875 1.875 -3.140625 C 1.140625 -3.40625 0.90625 -3.65625 0.90625 -4.171875 C 0.90625 -4.734375 1.28125 -5.078125 1.890625 -5.078125 C 2.21875 -5.078125 2.46875 -4.96875 2.625 -4.765625 C 2.765625 -4.59375 2.796875 -4.46875 2.8125 -3.96875 L 2.8125 -3.890625 L 3.421875 -3.890625 C 3.421875 -4.328125 3.390625 -4.59375 3.296875 -4.8125 C 3.09375 -5.296875 2.59375 -5.5625 1.90625 -5.5625 C 0.90625 -5.5625 0.3125 -5.03125 0.3125 -4.109375 C 0.3125 -3.359375 0.640625 -2.96875 1.59375 -2.625 C 2.328125 -2.359375 2.453125 -2.296875 2.640625 -2.140625 C 2.84375 -1.96875 2.953125 -1.71875 2.953125 -1.390625 C 2.953125 -0.765625 2.546875 -0.375 1.875 -0.375 C 1.140625 -0.375 0.796875 -0.765625 0.796875 -1.640625 L 0.796875 -1.765625 Z M 0.203125 -1.765625 " />
</g>
<g id="glyph-3-14">
<path d="M 0.0625 -5.4375 L 1.640625 0.078125 L 1.609375 0.234375 C 1.59375 0.3125 1.453125 0.71875 1.40625 0.828125 C 1.25 1.171875 1.0625 1.3125 0.65625 1.3125 C 0.546875 1.3125 0.5 1.3125 0.28125 1.296875 L 0.28125 1.828125 C 0.46875 1.84375 0.578125 1.84375 0.71875 1.84375 C 1.25 1.84375 1.546875 1.703125 1.796875 1.328125 C 1.953125 1.109375 2.140625 0.578125 2.375 -0.359375 L 3.734375 -5.4375 L 3.0625 -5.4375 L 2.140625 -1.625 C 2.09375 -1.453125 2.03125 -0.984375 1.96875 -0.609375 L 1.953125 -0.609375 C 1.921875 -0.84375 1.875 -1.09375 1.765625 -1.609375 L 0.71875 -5.4375 Z M 0.0625 -5.4375 " />
</g>
<g id="glyph-3-15">
<path d="M 0.609375 -5.4375 L 0.609375 0 L 1.25 0 L 1.25 -3.546875 C 1.25 -3.984375 1.28125 -4.1875 1.375 -4.40625 C 1.5625 -4.8125 1.921875 -5.03125 2.34375 -5.03125 C 2.78125 -5.03125 3.0625 -4.796875 3.140625 -4.375 C 3.15625 -4.28125 3.171875 -3.984375 3.171875 -3.46875 L 3.171875 0 L 3.8125 0 L 3.8125 -3.46875 C 3.8125 -4 3.8125 -4.109375 3.90625 -4.3125 C 4.09375 -4.75 4.484375 -5.03125 4.921875 -5.03125 C 5.21875 -5.03125 5.46875 -4.90625 5.609375 -4.671875 C 5.71875 -4.5 5.734375 -4.34375 5.734375 -3.71875 L 5.734375 0 L 6.375 0 L 6.375 -3.71875 C 6.375 -4.390625 6.34375 -4.65625 6.234375 -4.890625 C 6.046875 -5.3125 5.625 -5.5625 5.0625 -5.5625 C 4.4375 -5.5625 4.03125 -5.265625 3.71875 -4.625 C 3.5625 -5.265625 3.171875 -5.578125 2.53125 -5.578125 C 1.921875 -5.578125 1.5 -5.296875 1.1875 -4.671875 C 1.203125 -4.890625 1.203125 -4.90625 1.203125 -5.21875 L 1.203125 -5.4375 Z M 0.609375 -5.4375 " />
</g>
<g id="glyph-3-16">
<path d="M 1.25 -7.34375 L 0.609375 -7.34375 L 0.609375 0 L 1.203125 0 L 1.203125 -0.359375 C 1.203125 -0.5625 1.203125 -0.609375 1.171875 -0.875 C 1.421875 -0.234375 1.875 0.125 2.515625 0.125 C 3.65625 0.125 4.25 -0.859375 4.25 -2.78125 C 4.25 -4.65625 3.703125 -5.5625 2.578125 -5.5625 C 1.9375 -5.5625 1.53125 -5.265625 1.21875 -4.5625 C 1.25 -4.8125 1.25 -4.875 1.25 -5.421875 Z M 2.421875 -5.046875 C 3.25 -5.046875 3.609375 -4.375 3.609375 -2.796875 C 3.609375 -1.140625 3.25 -0.390625 2.40625 -0.390625 C 1.59375 -0.390625 1.203125 -1.140625 1.203125 -2.734375 C 1.203125 -4.296875 1.609375 -5.046875 2.421875 -5.046875 Z M 2.421875 -5.046875 " />
</g>
<g id="glyph-3-17">
<path d="M 0.609375 -7.34375 L 0.609375 0 L 1.25 0 L 1.25 -7.34375 Z M 0.609375 -7.34375 " />
</g>
<g id="glyph-3-18">
<path d="M 4.046875 -7.34375 L 3.421875 -7.34375 L 3.421875 -5.296875 C 3.421875 -4.90625 3.421875 -4.859375 3.4375 -4.609375 C 3.25 -5.21875 2.78125 -5.5625 2.125 -5.5625 C 0.96875 -5.5625 0.40625 -4.640625 0.40625 -2.75 C 0.40625 -0.796875 0.953125 0.125 2.09375 0.125 C 2.796875 0.125 3.21875 -0.203125 3.46875 -0.90625 C 3.46875 -0.796875 3.46875 -0.796875 3.46875 -0.6875 L 3.453125 -0.34375 L 3.453125 0 L 4.046875 0 Z M 2.234375 -5.046875 C 3.09375 -5.046875 3.4375 -4.375 3.4375 -2.71875 C 3.4375 -2.015625 3.390625 -1.546875 3.265625 -1.21875 C 3.0625 -0.671875 2.71875 -0.390625 2.21875 -0.390625 C 1.390625 -0.390625 1.046875 -1.09375 1.046875 -2.734375 C 1.046875 -4.328125 1.40625 -5.046875 2.234375 -5.046875 Z M 2.234375 -5.046875 " />
</g>
<g id="glyph-3-19">
<path d="M 0.625 -5.4375 L 0.625 0 L 1.25 0 L 1.25 -5.4375 Z M 0.609375 -7.34375 L 0.609375 -6.3125 L 1.25 -6.3125 L 1.25 -7.34375 Z M 0.609375 -7.34375 " />
</g>
<g id="glyph-3-20">
<path d="M 1.203125 -5.4375 L 0.609375 -5.4375 L 0.609375 0 L 1.25 0 L 1.25 -3.5 C 1.25 -3.9375 1.28125 -4.15625 1.421875 -4.40625 C 1.640625 -4.8125 2 -5.03125 2.4375 -5.03125 C 2.8125 -5.03125 3.109375 -4.859375 3.25 -4.578125 C 3.328125 -4.375 3.359375 -4.125 3.359375 -3.53125 L 3.359375 0 L 4 0 L 4 -3.640625 C 4 -4.296875 3.96875 -4.515625 3.890625 -4.734375 C 3.703125 -5.265625 3.234375 -5.5625 2.625 -5.5625 C 1.953125 -5.5625 1.484375 -5.25 1.171875 -4.59375 C 1.203125 -4.828125 1.203125 -4.875 1.203125 -5.15625 Z M 1.203125 -5.4375 " />
</g>
<g id="glyph-3-21">
<path d="M 0.625 -1.0625 L 0.625 0 L 1.3125 0 L 1.3125 -1.0625 Z M 0.625 -1.0625 " />
</g>
<g id="glyph-4-0">
<path d="M 3.59375 -12 L 3.59375 -10.828125 C 3.59375 -10.46875 3.625 -10.078125 3.640625 -9.84375 C 3.453125 -9.953125 3.109375 -10.09375 2.859375 -10.203125 L 1.671875 -10.640625 L 1.296875 -9.546875 L 2.53125 -9.125 C 2.75 -9.046875 3.109375 -8.96875 3.328125 -8.90625 C 3.203125 -8.78125 2.953125 -8.515625 2.703125 -8.1875 L 2 -7.25 L 2.921875 -6.546875 L 3.640625 -7.53125 C 3.78125 -7.734375 3.890625 -7.90625 4.171875 -8.359375 C 4.265625 -8.171875 4.46875 -7.859375 4.71875 -7.53125 L 5.453125 -6.546875 L 6.375 -7.234375 L 5.65625 -8.203125 C 5.484375 -8.40625 5.359375 -8.546875 5.046875 -8.90625 C 5.203125 -8.953125 5.546875 -9.046875 5.796875 -9.140625 L 7 -9.578125 L 6.609375 -10.625 L 5.375 -10.171875 C 5.109375 -10.0625 4.765625 -9.921875 4.65625 -9.859375 C 4.703125 -10.09375 4.734375 -10.609375 4.734375 -10.828125 L 4.734375 -12 Z M 3.59375 -12 " />
</g>
<g id="glyph-5-0">
<path d="M 0.546875 -6.671875 L 0.546875 0 L 1.59375 0 L 1.59375 -3.03125 L 3.953125 -3.03125 L 3.953125 -3.90625 L 1.59375 -3.90625 L 1.59375 -5.78125 L 4.09375 -5.78125 L 4.09375 -6.671875 Z M 0.546875 -6.671875 " />
</g>
<g id="glyph-5-1">
<path d="M 1.59375 -4 L 1.59375 -6.671875 L 0.546875 -6.671875 L 0.546875 0 L 1.59375 0 L 1.59375 -3.09375 L 3.5625 -3.09375 L 3.5625 0 L 4.625 0 L 4.625 -6.671875 L 3.5625 -6.671875 L 3.5625 -4 Z M 1.59375 -4 " />
</g>
<g id="glyph-6-0">
<path d="M 4.734375 0 L 3.875 0 L 2.234375 -2.890625 L 1.3125 -2.890625 L 1.3125 0 L 0.65625 0 L 0.65625 -7.265625 L 2.03125 -7.265625 C 2.332031 -7.265625 2.582031 -7.234375 2.78125 -7.171875 C 2.976562 -7.117188 3.15625 -7.019531 3.3125 -6.875 C 3.488281 -6.707031 3.628906 -6.5 3.734375 -6.25 C 3.835938 -6 3.890625 -5.679688 3.890625 -5.296875 C 3.890625 -4.765625 3.796875 -4.320312 3.609375 -3.96875 C 3.429688 -3.625 3.1875 -3.359375 2.875 -3.171875 Z M 3.203125 -5.21875 C 3.203125 -5.425781 3.175781 -5.609375 3.125 -5.765625 C 3.070312 -5.929688 2.988281 -6.070312 2.875 -6.1875 C 2.78125 -6.28125 2.664062 -6.34375 2.53125 -6.375 C 2.40625 -6.414062 2.253906 -6.4375 2.078125 -6.4375 L 1.3125 -6.4375 L 1.3125 -3.703125 L 1.96875 -3.703125 C 2.175781 -3.703125 2.359375 -3.726562 2.515625 -3.78125 C 2.671875 -3.832031 2.800781 -3.929688 2.90625 -4.078125 C 3.007812 -4.210938 3.082031 -4.367188 3.125 -4.546875 C 3.175781 -4.722656 3.203125 -4.945312 3.203125 -5.21875 Z M 3.203125 -5.21875 " />
</g>
<g id="glyph-6-1">
<path d="M 3.90625 0 L 0.65625 0 L 0.65625 -7.265625 L 3.90625 -7.265625 L 3.90625 -6.40625 L 1.3125 -6.40625 L 1.3125 -4.421875 L 3.90625 -4.421875 L 3.90625 -3.5625 L 1.3125 -3.5625 L 1.3125 -0.859375 L 3.90625 -0.859375 Z M 3.90625 0 " />
</g>
<g id="glyph-6-2">
<path d="M 4.53125 -7.265625 L 2.75 0 L 1.875 0 L 0.078125 -7.265625 L 0.78125 -7.265625 L 2.328125 -0.875 L 3.875 -7.265625 Z M 4.53125 -7.265625 " />
</g>
<g id="glyph-6-3">
<path d="M 4.234375 -2.078125 C 4.234375 -1.796875 4.1875 -1.515625 4.09375 -1.234375 C 4.007812 -0.960938 3.882812 -0.726562 3.71875 -0.53125 C 3.550781 -0.320312 3.347656 -0.160156 3.109375 -0.046875 C 2.878906 0.0664062 2.597656 0.125 2.265625 0.125 C 1.910156 0.125 1.585938 0.078125 1.296875 -0.015625 C 1.015625 -0.109375 0.726562 -0.253906 0.4375 -0.453125 L 0.4375 -1.65625 L 0.484375 -1.65625 C 0.734375 -1.351562 1.019531 -1.117188 1.34375 -0.953125 C 1.675781 -0.785156 1.984375 -0.703125 2.265625 -0.703125 C 2.671875 -0.703125 2.984375 -0.8125 3.203125 -1.03125 C 3.429688 -1.257812 3.546875 -1.5625 3.546875 -1.9375 C 3.546875 -2.257812 3.492188 -2.492188 3.390625 -2.640625 C 3.285156 -2.796875 3.125 -2.921875 2.90625 -3.015625 C 2.738281 -3.078125 2.554688 -3.128906 2.359375 -3.171875 C 2.171875 -3.210938 1.96875 -3.265625 1.75 -3.328125 C 1.320312 -3.460938 1 -3.695312 0.78125 -4.03125 C 0.570312 -4.363281 0.46875 -4.796875 0.46875 -5.328125 C 0.46875 -5.929688 0.640625 -6.425781 0.984375 -6.8125 C 1.335938 -7.207031 1.78125 -7.40625 2.3125 -7.40625 C 2.664062 -7.40625 2.984375 -7.351562 3.265625 -7.25 C 3.554688 -7.15625 3.8125 -7.035156 4.03125 -6.890625 L 4.03125 -5.75 L 3.984375 -5.75 C 3.796875 -5.988281 3.550781 -6.179688 3.25 -6.328125 C 2.945312 -6.484375 2.632812 -6.5625 2.3125 -6.5625 C 1.96875 -6.5625 1.6875 -6.453125 1.46875 -6.234375 C 1.257812 -6.023438 1.15625 -5.753906 1.15625 -5.421875 C 1.15625 -5.117188 1.207031 -4.878906 1.3125 -4.703125 C 1.414062 -4.523438 1.601562 -4.394531 1.875 -4.3125 C 2.007812 -4.257812 2.207031 -4.203125 2.46875 -4.140625 C 2.726562 -4.078125 2.945312 -4.007812 3.125 -3.9375 C 3.5 -3.789062 3.773438 -3.570312 3.953125 -3.28125 C 4.140625 -3 4.234375 -2.597656 4.234375 -2.078125 Z M 4.234375 -2.078125 " />
</g>
<g id="glyph-6-4">
</g>
<g id="glyph-6-5">
<path d="M 4.171875 -6.40625 L 2.40625 -6.40625 L 2.40625 0 L 1.75 0 L 1.75 -6.40625 L 0 -6.40625 L 0 -7.265625 L 4.171875 -7.265625 Z M 4.171875 -6.40625 " />
</g>
<g id="glyph-6-6">
<path d="M 4.359375 -2.921875 C 4.359375 -2.390625 4.316406 -1.925781 4.234375 -1.53125 C 4.160156 -1.144531 4.035156 -0.820312 3.859375 -0.5625 C 3.691406 -0.3125 3.492188 -0.128906 3.265625 -0.015625 C 3.035156 0.0976562 2.769531 0.15625 2.46875 0.15625 C 2.164062 0.15625 1.898438 0.0976562 1.671875 -0.015625 C 1.441406 -0.140625 1.25 -0.320312 1.09375 -0.5625 C 0.914062 -0.832031 0.785156 -1.15625 0.703125 -1.53125 C 0.628906 -1.90625 0.59375 -2.367188 0.59375 -2.921875 L 0.59375 -7.265625 L 1.234375 -7.265625 L 1.234375 -2.875 C 1.234375 -2.476562 1.25 -2.164062 1.28125 -1.9375 C 1.320312 -1.707031 1.390625 -1.5 1.484375 -1.3125 C 1.578125 -1.101562 1.707031 -0.941406 1.875 -0.828125 C 2.039062 -0.722656 2.238281 -0.671875 2.46875 -0.671875 C 2.707031 -0.671875 2.910156 -0.722656 3.078125 -0.828125 C 3.242188 -0.941406 3.375 -1.101562 3.46875 -1.3125 C 3.550781 -1.5 3.609375 -1.710938 3.640625 -1.953125 C 3.679688 -2.191406 3.703125 -2.488281 3.703125 -2.84375 L 3.703125 -7.265625 L 4.359375 -7.265625 Z M 4.359375 -2.921875 " />
</g>
<g id="glyph-6-7">
<path d="M 4.40625 0 L 3.609375 0 L 1.265625 -6.5 L 1.265625 0 L 0.65625 0 L 0.65625 -7.265625 L 1.671875 -7.265625 L 3.796875 -1.328125 L 3.796875 -7.265625 L 4.40625 -7.265625 Z M 4.40625 0 " />
</g>
<g id="glyph-7-0">
<path d="M 7.015625 -8 L 5.609375 0 L 4.796875 0 L 3.671875 -6.640625 L 2.5625 0 L 1.765625 0 L 0.328125 -8 L 1.078125 -8 L 2.203125 -1.34375 L 3.328125 -8 L 4.0625 -8 L 5.1875 -1.28125 L 6.3125 -8 Z M 7.015625 -8 " />
</g>
<g id="glyph-7-1">
<path d="M 4.984375 0 L 4.21875 0 L 3.6875 -2.234375 L 1.359375 -2.234375 L 0.828125 0 L 0.09375 0 L 2.0625 -8 L 3.015625 -8 Z M 3.46875 -3.140625 L 2.53125 -7.0625 L 1.578125 -3.140625 Z M 3.46875 -3.140625 " />
</g>
<g id="glyph-7-2">
<path d="M 5.203125 0 L 4.265625 0 L 2.453125 -3.1875 L 1.453125 -3.1875 L 1.453125 0 L 0.71875 0 L 0.71875 -8 L 2.234375 -8 C 2.566406 -8 2.84375 -7.96875 3.0625 -7.90625 C 3.28125 -7.84375 3.472656 -7.726562 3.640625 -7.5625 C 3.835938 -7.382812 3.988281 -7.15625 4.09375 -6.875 C 4.207031 -6.601562 4.265625 -6.253906 4.265625 -5.828125 C 4.265625 -5.242188 4.164062 -4.757812 3.96875 -4.375 C 3.78125 -3.988281 3.515625 -3.695312 3.171875 -3.5 Z M 3.515625 -5.75 C 3.515625 -5.976562 3.488281 -6.179688 3.4375 -6.359375 C 3.382812 -6.535156 3.296875 -6.6875 3.171875 -6.8125 C 3.066406 -6.914062 2.941406 -6.984375 2.796875 -7.015625 C 2.648438 -7.054688 2.484375 -7.078125 2.296875 -7.078125 L 1.453125 -7.078125 L 1.453125 -4.0625 L 2.171875 -4.0625 C 2.398438 -4.0625 2.597656 -4.09375 2.765625 -4.15625 C 2.929688 -4.21875 3.078125 -4.328125 3.203125 -4.484375 C 3.304688 -4.628906 3.382812 -4.800781 3.4375 -5 C 3.488281 -5.195312 3.515625 -5.445312 3.515625 -5.75 Z M 3.515625 -5.75 " />
</g>
<g id="glyph-7-3">
<path d="M 4.859375 0 L 3.96875 0 L 1.390625 -7.15625 L 1.390625 0 L 0.71875 0 L 0.71875 -8 L 1.84375 -8 L 4.1875 -1.46875 L 4.1875 -8 L 4.859375 -8 Z M 4.859375 0 " />
</g>
<g id="glyph-7-4">
<path d="M 2.640625 0 L 0.5 0 L 0.5 -0.8125 L 1.203125 -0.8125 L 1.203125 -7.1875 L 0.5 -7.1875 L 0.5 -8 L 2.640625 -8 L 2.640625 -7.1875 L 1.921875 -7.1875 L 1.921875 -0.8125 L 2.640625 -0.8125 Z M 2.640625 0 " />
</g>
<g id="glyph-7-5">
<path d="M 5.234375 -0.59375 C 4.941406 -0.394531 4.617188 -0.21875 4.265625 -0.0625 C 3.921875 0.0820312 3.582031 0.15625 3.25 0.15625 C 2.832031 0.15625 2.445312 0.0703125 2.09375 -0.09375 C 1.738281 -0.269531 1.441406 -0.53125 1.203125 -0.875 C 0.953125 -1.21875 0.757812 -1.648438 0.625 -2.171875 C 0.488281 -2.691406 0.421875 -3.300781 0.421875 -4 C 0.421875 -5.28125 0.671875 -6.289062 1.171875 -7.03125 C 1.679688 -7.769531 2.375 -8.140625 3.25 -8.140625 C 3.5625 -8.140625 3.875 -8.082031 4.1875 -7.96875 C 4.507812 -7.863281 4.859375 -7.679688 5.234375 -7.421875 L 5.234375 -6.15625 L 5.171875 -6.15625 C 5.097656 -6.25 4.988281 -6.363281 4.84375 -6.5 C 4.695312 -6.632812 4.554688 -6.75 4.421875 -6.84375 C 4.253906 -6.957031 4.0625 -7.050781 3.84375 -7.125 C 3.632812 -7.195312 3.394531 -7.234375 3.125 -7.234375 C 2.519531 -7.234375 2.039062 -6.945312 1.6875 -6.375 C 1.34375 -5.800781 1.171875 -5.023438 1.171875 -4.046875 C 1.171875 -3.003906 1.351562 -2.195312 1.71875 -1.625 C 2.082031 -1.050781 2.582031 -0.765625 3.21875 -0.765625 C 3.445312 -0.765625 3.675781 -0.796875 3.90625 -0.859375 C 4.144531 -0.929688 4.351562 -1.019531 4.53125 -1.125 L 4.53125 -3.09375 L 3.078125 -3.09375 L 3.078125 -4.015625 L 5.234375 -4.015625 Z M 5.234375 -0.59375 " />
</g>
<g id="glyph-7-6">
</g>
<g id="glyph-7-7">
<path d="M 4.65625 -2.28125 C 4.65625 -1.96875 4.601562 -1.660156 4.5 -1.359375 C 4.40625 -1.054688 4.269531 -0.796875 4.09375 -0.578125 C 3.90625 -0.347656 3.679688 -0.171875 3.421875 -0.046875 C 3.160156 0.078125 2.847656 0.140625 2.484375 0.140625 C 2.097656 0.140625 1.75 0.0859375 1.4375 -0.015625 C 1.125 -0.117188 0.804688 -0.28125 0.484375 -0.5 L 0.484375 -1.828125 L 0.53125 -1.828125 C 0.8125 -1.492188 1.128906 -1.234375 1.484375 -1.046875 C 1.835938 -0.867188 2.175781 -0.78125 2.5 -0.78125 C 2.9375 -0.78125 3.28125 -0.898438 3.53125 -1.140625 C 3.78125 -1.390625 3.90625 -1.71875 3.90625 -2.125 C 3.90625 -2.488281 3.847656 -2.753906 3.734375 -2.921875 C 3.617188 -3.085938 3.441406 -3.21875 3.203125 -3.3125 C 3.015625 -3.382812 2.8125 -3.441406 2.59375 -3.484375 C 2.382812 -3.535156 2.164062 -3.59375 1.9375 -3.65625 C 1.457031 -3.8125 1.097656 -4.070312 0.859375 -4.4375 C 0.628906 -4.800781 0.515625 -5.273438 0.515625 -5.859375 C 0.515625 -6.523438 0.707031 -7.070312 1.09375 -7.5 C 1.476562 -7.925781 1.960938 -8.140625 2.546875 -8.140625 C 2.929688 -8.140625 3.28125 -8.085938 3.59375 -7.984375 C 3.914062 -7.878906 4.195312 -7.742188 4.4375 -7.578125 L 4.4375 -6.328125 L 4.390625 -6.328125 C 4.179688 -6.585938 3.910156 -6.800781 3.578125 -6.96875 C 3.242188 -7.132812 2.898438 -7.21875 2.546875 -7.21875 C 2.160156 -7.21875 1.847656 -7.097656 1.609375 -6.859375 C 1.378906 -6.628906 1.265625 -6.328125 1.265625 -5.953125 C 1.265625 -5.617188 1.320312 -5.359375 1.4375 -5.171875 C 1.550781 -4.984375 1.757812 -4.835938 2.0625 -4.734375 C 2.207031 -4.679688 2.421875 -4.617188 2.703125 -4.546875 C 2.992188 -4.484375 3.238281 -4.410156 3.4375 -4.328125 C 3.84375 -4.171875 4.144531 -3.929688 4.34375 -3.609375 C 4.550781 -3.296875 4.65625 -2.851562 4.65625 -2.28125 Z M 4.65625 -2.28125 " />
</g>
<g id="glyph-7-8">
<path d="M 4.90625 -0.578125 C 4.769531 -0.492188 4.644531 -0.410156 4.53125 -0.328125 C 4.425781 -0.253906 4.289062 -0.179688 4.125 -0.109375 C 3.96875 -0.0351562 3.800781 0.0195312 3.625 0.0625 C 3.457031 0.113281 3.269531 0.140625 3.0625 0.140625 C 2.675781 0.140625 2.320312 0.0585938 2 -0.09375 C 1.675781 -0.257812 1.394531 -0.515625 1.15625 -0.859375 C 0.925781 -1.203125 0.742188 -1.632812 0.609375 -2.15625 C 0.484375 -2.6875 0.421875 -3.296875 0.421875 -3.984375 C 0.421875 -4.648438 0.484375 -5.238281 0.609375 -5.75 C 0.734375 -6.269531 0.914062 -6.710938 1.15625 -7.078125 C 1.382812 -7.421875 1.660156 -7.679688 1.984375 -7.859375 C 2.304688 -8.046875 2.664062 -8.140625 3.0625 -8.140625 C 3.351562 -8.140625 3.644531 -8.085938 3.9375 -7.984375 C 4.226562 -7.878906 4.550781 -7.695312 4.90625 -7.4375 L 4.90625 -6.171875 L 4.84375 -6.171875 C 4.550781 -6.546875 4.253906 -6.816406 3.953125 -6.984375 C 3.660156 -7.148438 3.347656 -7.234375 3.015625 -7.234375 C 2.742188 -7.234375 2.5 -7.164062 2.28125 -7.03125 C 2.0625 -6.90625 1.867188 -6.703125 1.703125 -6.421875 C 1.535156 -6.160156 1.40625 -5.820312 1.3125 -5.40625 C 1.21875 -5 1.171875 -4.523438 1.171875 -3.984375 C 1.171875 -3.421875 1.21875 -2.9375 1.3125 -2.53125 C 1.414062 -2.132812 1.550781 -1.804688 1.71875 -1.546875 C 1.882812 -1.285156 2.082031 -1.09375 2.3125 -0.96875 C 2.539062 -0.84375 2.78125 -0.78125 3.03125 -0.78125 C 3.375 -0.78125 3.695312 -0.863281 4 -1.03125 C 4.300781 -1.207031 4.585938 -1.472656 4.859375 -1.828125 L 4.90625 -1.828125 Z M 4.90625 -0.578125 " />
</g>
<g id="glyph-7-9">
<path d="M 4.75 -7.078125 C 4.976562 -6.722656 5.148438 -6.285156 5.265625 -5.765625 C 5.378906 -5.242188 5.4375 -4.65625 5.4375 -4 C 5.4375 -3.34375 5.375 -2.75 5.25 -2.21875 C 5.132812 -1.695312 4.96875 -1.265625 4.75 -0.921875 C 4.53125 -0.554688 4.269531 -0.28125 3.96875 -0.09375 C 3.664062 0.0820312 3.316406 0.171875 2.921875 0.171875 C 2.546875 0.171875 2.203125 0.0742188 1.890625 -0.109375 C 1.578125 -0.296875 1.3125 -0.566406 1.09375 -0.921875 C 0.875 -1.273438 0.707031 -1.707031 0.59375 -2.21875 C 0.476562 -2.738281 0.421875 -3.332031 0.421875 -4 C 0.421875 -4.644531 0.476562 -5.226562 0.59375 -5.75 C 0.707031 -6.269531 0.875 -6.710938 1.09375 -7.078125 C 1.3125 -7.429688 1.578125 -7.703125 1.890625 -7.890625 C 2.210938 -8.078125 2.554688 -8.171875 2.921875 -8.171875 C 3.316406 -8.171875 3.664062 -8.070312 3.96875 -7.875 C 4.28125 -7.6875 4.539062 -7.421875 4.75 -7.078125 Z M 4.6875 -4 C 4.6875 -5.03125 4.53125 -5.828125 4.21875 -6.390625 C 3.90625 -6.960938 3.476562 -7.25 2.9375 -7.25 C 2.382812 -7.25 1.953125 -6.960938 1.640625 -6.390625 C 1.328125 -5.828125 1.171875 -5.03125 1.171875 -4 C 1.171875 -2.945312 1.328125 -2.140625 1.640625 -1.578125 C 1.960938 -1.023438 2.394531 -0.75 2.9375 -0.75 C 3.46875 -0.75 3.890625 -1.023438 4.203125 -1.578125 C 4.523438 -2.140625 4.6875 -2.945312 4.6875 -4 Z M 4.6875 -4 " />
</g>
<g id="glyph-7-10">
<path d="M 4.140625 0 L 0.71875 0 L 0.71875 -8 L 1.453125 -8 L 1.453125 -0.953125 L 4.140625 -0.953125 Z M 4.140625 0 " />
</g>
<g id="glyph-7-11">
<path d="M 2.125 -4.46875 L 1.25 -4.46875 L 1.25 -6 L 2.125 -6 Z M 2.125 0 L 1.25 0 L 1.25 -1.53125 L 2.125 -1.53125 Z M 2.125 0 " />
</g>
<g id="glyph-7-12">
<path d="M 4.546875 -8 L 2.65625 -3.5 L 2.65625 0 L 1.9375 0 L 1.9375 -3.390625 L 0.015625 -8 L 0.8125 -8 L 2.296875 -4.421875 L 3.78125 -8 Z M 4.546875 -8 " />
</g>
<g id="glyph-7-13">
<path d="M 5.546875 0 L 4.828125 0 L 4.828125 -6.890625 L 3.3125 -2.203125 L 2.890625 -2.203125 L 1.390625 -6.890625 L 1.390625 0 L 0.71875 0 L 0.71875 -8 L 1.703125 -8 L 3.15625 -3.546875 L 4.546875 -8 L 5.546875 -8 Z M 5.546875 0 " />
</g>
<g id="glyph-7-14">
<path d="M 4.796875 -2.453125 C 4.796875 -2.054688 4.742188 -1.707031 4.640625 -1.40625 C 4.546875 -1.101562 4.410156 -0.851562 4.234375 -0.65625 C 4.035156 -0.414062 3.8125 -0.242188 3.5625 -0.140625 C 3.320312 -0.046875 3.015625 0 2.640625 0 L 0.71875 0 L 0.71875 -8 L 2.328125 -8 C 2.722656 -8 3.019531 -7.976562 3.21875 -7.9375 C 3.414062 -7.894531 3.601562 -7.804688 3.78125 -7.671875 C 3.976562 -7.515625 4.117188 -7.3125 4.203125 -7.0625 C 4.296875 -6.820312 4.34375 -6.535156 4.34375 -6.203125 C 4.34375 -5.828125 4.273438 -5.503906 4.140625 -5.234375 C 4.015625 -4.960938 3.84375 -4.75 3.625 -4.59375 L 3.625 -4.546875 C 3.988281 -4.441406 4.273438 -4.207031 4.484375 -3.84375 C 4.691406 -3.476562 4.796875 -3.015625 4.796875 -2.453125 Z M 3.59375 -6.0625 C 3.59375 -6.257812 3.570312 -6.421875 3.53125 -6.546875 C 3.488281 -6.679688 3.414062 -6.789062 3.3125 -6.875 C 3.207031 -6.96875 3.070312 -7.023438 2.90625 -7.046875 C 2.738281 -7.078125 2.535156 -7.09375 2.296875 -7.09375 L 1.453125 -7.09375 L 1.453125 -4.78125 L 2.375 -4.78125 C 2.601562 -4.78125 2.78125 -4.796875 2.90625 -4.828125 C 3.039062 -4.859375 3.164062 -4.929688 3.28125 -5.046875 C 3.394531 -5.148438 3.472656 -5.285156 3.515625 -5.453125 C 3.566406 -5.628906 3.59375 -5.832031 3.59375 -6.0625 Z M 4.0625 -2.421875 C 4.0625 -2.742188 4.023438 -3 3.953125 -3.1875 C 3.890625 -3.375 3.773438 -3.535156 3.609375 -3.671875 C 3.484375 -3.753906 3.335938 -3.8125 3.171875 -3.84375 C 3.015625 -3.875 2.816406 -3.890625 2.578125 -3.890625 L 1.453125 -3.890625 L 1.453125 -0.90625 L 2.390625 -0.90625 C 2.710938 -0.90625 2.972656 -0.925781 3.171875 -0.96875 C 3.367188 -1.019531 3.535156 -1.113281 3.671875 -1.25 C 3.804688 -1.382812 3.90625 -1.539062 3.96875 -1.71875 C 4.03125 -1.90625 4.0625 -2.140625 4.0625 -2.421875 Z M 4.0625 -2.421875 " />
</g>
<g id="glyph-7-15">
<path d="M 6.875 -3.078125 L 0.5625 -3.078125 L 0.5625 -3.9375 L 6.875 -3.9375 Z M 6.875 -3.078125 " />
</g>
<g id="glyph-7-16">
<path d="M 5.078125 0 L 4.140625 0 L 2 -3.5625 L 1.46875 -2.71875 L 1.46875 0 L 0.75 0 L 0.75 -8 L 1.46875 -8 L 1.46875 -3.828125 L 4.09375 -8 L 4.953125 -8 L 2.546875 -4.234375 Z M 5.078125 0 " />
</g>
<g id="glyph-7-17">
<path d="M 4.796875 -3.21875 C 4.796875 -2.632812 4.753906 -2.125 4.671875 -1.6875 C 4.585938 -1.257812 4.445312 -0.90625 4.25 -0.625 C 4.0625 -0.34375 3.84375 -0.140625 3.59375 -0.015625 C 3.34375 0.109375 3.050781 0.171875 2.71875 0.171875 C 2.382812 0.171875 2.085938 0.101562 1.828125 -0.03125 C 1.578125 -0.164062 1.367188 -0.363281 1.203125 -0.625 C 1.003906 -0.914062 0.859375 -1.265625 0.765625 -1.671875 C 0.679688 -2.085938 0.640625 -2.601562 0.640625 -3.21875 L 0.640625 -8 L 1.359375 -8 L 1.359375 -3.15625 C 1.359375 -2.726562 1.378906 -2.382812 1.421875 -2.125 C 1.460938 -1.875 1.53125 -1.648438 1.625 -1.453125 C 1.726562 -1.210938 1.867188 -1.035156 2.046875 -0.921875 C 2.234375 -0.804688 2.457031 -0.75 2.71875 -0.75 C 2.976562 -0.75 3.195312 -0.804688 3.375 -0.921875 C 3.5625 -1.035156 3.707031 -1.210938 3.8125 -1.453125 C 3.90625 -1.648438 3.972656 -1.878906 4.015625 -2.140625 C 4.054688 -2.410156 4.078125 -2.738281 4.078125 -3.125 L 4.078125 -8 L 4.796875 -8 Z M 4.796875 -3.21875 " />
</g>
<g id="glyph-7-18">
<path d="M 5.296875 -3.984375 C 5.296875 -3.265625 5.1875 -2.609375 4.96875 -2.015625 C 4.757812 -1.421875 4.476562 -0.960938 4.125 -0.640625 C 3.875 -0.410156 3.597656 -0.242188 3.296875 -0.140625 C 2.992188 -0.046875 2.59375 0 2.09375 0 L 0.71875 0 L 0.71875 -8 L 2.078125 -8 C 2.609375 -8 3.023438 -7.941406 3.328125 -7.828125 C 3.640625 -7.710938 3.90625 -7.554688 4.125 -7.359375 C 4.488281 -7.023438 4.773438 -6.570312 4.984375 -6 C 5.191406 -5.4375 5.296875 -4.765625 5.296875 -3.984375 Z M 4.546875 -4 C 4.546875 -4.632812 4.46875 -5.164062 4.3125 -5.59375 C 4.164062 -6.019531 3.945312 -6.359375 3.65625 -6.609375 C 3.445312 -6.785156 3.222656 -6.90625 2.984375 -6.96875 C 2.742188 -7.039062 2.457031 -7.078125 2.125 -7.078125 L 1.453125 -7.078125 L 1.453125 -0.90625 L 2.125 -0.90625 C 2.46875 -0.90625 2.765625 -0.941406 3.015625 -1.015625 C 3.273438 -1.097656 3.515625 -1.238281 3.734375 -1.4375 C 4.003906 -1.695312 4.207031 -2.035156 4.34375 -2.453125 C 4.476562 -2.867188 4.546875 -3.382812 4.546875 -4 Z M 4.546875 -4 " />
</g>
<g id="glyph-7-19">
<path d="M 4.28125 0 L 0.71875 0 L 0.71875 -8 L 4.28125 -8 L 4.28125 -7.046875 L 1.453125 -7.046875 L 1.453125 -4.859375 L 4.28125 -4.859375 L 4.28125 -3.921875 L 1.453125 -3.921875 L 1.453125 -0.953125 L 4.28125 -0.953125 Z M 4.28125 0 " />
</g>
<g id="glyph-7-20">
<path d="M 2.84375 2.21875 L 2.015625 2.21875 C 1.585938 1.488281 1.253906 0.695312 1.015625 -0.15625 C 0.773438 -1.019531 0.65625 -1.992188 0.65625 -3.078125 C 0.65625 -4.148438 0.773438 -5.113281 1.015625 -5.96875 C 1.253906 -6.832031 1.585938 -7.628906 2.015625 -8.359375 L 2.84375 -8.359375 L 2.84375 -8.296875 C 2.644531 -8.035156 2.457031 -7.734375 2.28125 -7.390625 C 2.101562 -7.054688 1.9375 -6.660156 1.78125 -6.203125 C 1.632812 -5.765625 1.515625 -5.28125 1.421875 -4.75 C 1.335938 -4.21875 1.296875 -3.660156 1.296875 -3.078125 C 1.296875 -2.460938 1.335938 -1.898438 1.421875 -1.390625 C 1.515625 -0.878906 1.632812 -0.394531 1.78125 0.0625 C 1.925781 0.5 2.09375 0.894531 2.28125 1.25 C 2.46875 1.601562 2.65625 1.90625 2.84375 2.15625 Z M 2.84375 2.21875 " />
</g>
<g id="glyph-7-21">
<path d="M 4.578125 -7.046875 L 2.65625 -7.046875 L 2.65625 0 L 1.9375 0 L 1.9375 -7.046875 L 0 -7.046875 L 0 -8 L 4.578125 -8 Z M 4.578125 -7.046875 " />
</g>
<g id="glyph-7-22">
<path d="M 4.1875 -7.046875 L 1.453125 -7.046875 L 1.453125 -4.796875 L 3.796875 -4.796875 L 3.796875 -3.84375 L 1.453125 -3.84375 L 1.453125 0 L 0.71875 0 L 0.71875 -8 L 4.1875 -8 Z M 4.1875 -7.046875 " />
</g>
<g id="glyph-7-23">
<path d="M 4.984375 -8 L 3.015625 0 L 2.0625 0 L 0.09375 -8 L 0.859375 -8 L 2.5625 -0.96875 L 4.25 -8 Z M 4.984375 -8 " />
</g>
<g id="glyph-7-24">
<path d="M 2.71875 -3.078125 C 2.71875 -1.992188 2.597656 -1.019531 2.359375 -0.15625 C 2.128906 0.695312 1.796875 1.488281 1.359375 2.21875 L 0.53125 2.21875 L 0.53125 2.15625 C 0.71875 1.90625 0.90625 1.601562 1.09375 1.25 C 1.28125 0.894531 1.445312 0.5 1.59375 0.0625 C 1.738281 -0.394531 1.851562 -0.878906 1.9375 -1.390625 C 2.03125 -1.898438 2.078125 -2.460938 2.078125 -3.078125 C 2.078125 -3.660156 2.03125 -4.21875 1.9375 -4.75 C 1.851562 -5.28125 1.738281 -5.765625 1.59375 -6.203125 C 1.4375 -6.660156 1.269531 -7.054688 1.09375 -7.390625 C 0.914062 -7.734375 0.726562 -8.035156 0.53125 -8.296875 L 0.53125 -8.359375 L 1.359375 -8.359375 C 1.796875 -7.628906 2.128906 -6.832031 2.359375 -5.96875 C 2.597656 -5.113281 2.71875 -4.148438 2.71875 -3.078125 Z M 2.71875 -3.078125 " />
</g>
<g id="glyph-8-0">
<path d="M 3.390625 -2.84375 C 3.390625 -1.390625 3.28125 -1.078125 2.8125 -1.078125 C 2.453125 -1.078125 2.3125 -1.296875 2.265625 -1.921875 C 2.234375 -2.3125 2.21875 -2.953125 2.21875 -3.78125 C 2.21875 -4.484375 2.25 -4.96875 2.28125 -5.34375 C 2.3125 -5.78125 2.484375 -5.984375 2.796875 -5.984375 C 3.109375 -5.984375 3.28125 -5.78125 3.3125 -5.3125 C 3.34375 -5.0625 3.34375 -4.9375 3.34375 -4.515625 L 5.109375 -4.515625 C 5.125 -5.40625 5.078125 -5.734375 4.953125 -6.078125 C 4.640625 -6.859375 3.953125 -7.21875 2.8125 -7.21875 C 1.890625 -7.21875 1.234375 -6.953125 0.828125 -6.4375 C 0.4375 -5.9375 0.3125 -5.25 0.3125 -3.5625 C 0.3125 -2.015625 0.40625 -1.359375 0.671875 -0.875 C 1.03125 -0.171875 1.6875 0.15625 2.71875 0.15625 C 3.34375 0.15625 3.90625 0.046875 4.234375 -0.171875 C 4.671875 -0.4375 5 -0.96875 5.109375 -1.515625 C 5.171875 -1.921875 5.1875 -2.09375 5.1875 -2.84375 Z M 3.390625 -2.84375 " />
</g>
</g>
</defs>
<path fill-rule="evenodd" fill="rgb(100%, 95.999146%, 0%)" fill-opacity="1" stroke-width="1.0001" stroke-linecap="butt" stroke-linejoin="miter" stroke="rgb(11.999512%, 9.999084%, 8.999634%)" stroke-opacity="1" stroke-miterlimit="10" d="M 135.089844 543.707031 L 289.234375 697.851562 C 298.410156 707.027344 313.421875 707.027344 322.597656 697.851562 L 476.742188 543.707031 C 485.914062 534.53125 485.914062 519.519531 476.742188 510.34375 L 322.597656 356.199219 C 313.421875 347.027344 298.410156 347.027344 289.234375 356.199219 L 135.089844 510.34375 C 125.914062 519.519531 125.914062 534.53125 135.089844 543.707031 Z M 135.089844 543.707031 " transform="matrix(1, 0, 0, -1, 0, 792)" />
<path fill-rule="evenodd" fill="rgb(11.999512%, 9.999084%, 8.999634%)" fill-opacity="1" stroke-width="0.216" stroke-linecap="butt" stroke-linejoin="miter" stroke="rgb(11.999512%, 9.999084%, 8.999634%)" stroke-opacity="1" stroke-miterlimit="10" d="M 141.300781 541.585938 L 291.355469 691.640625 C 299.363281 699.648438 312.46875 699.648438 320.476562 691.640625 L 470.527344 541.585938 C 478.535156 533.578125 478.535156 520.472656 470.527344 512.464844 L 320.476562 362.414062 C 312.46875 354.40625 299.363281 354.40625 291.355469 362.414062 L 141.300781 512.464844 C 133.292969 520.472656 133.292969 533.578125 141.300781 541.585938 Z M 141.300781 541.585938 " transform="matrix(1, 0, 0, -1, 0, 792)" />
<path fill-rule="evenodd" fill="rgb(100%, 95.999146%, 0%)" fill-opacity="1" stroke-width="0.216" stroke-linecap="butt" stroke-linejoin="miter" stroke="rgb(11.999512%, 9.999084%, 8.999634%)" stroke-opacity="1" stroke-miterlimit="10" d="M 149.101562 536.886719 L 296.054688 683.839844 C 301.476562 689.261719 310.351562 689.261719 315.777344 683.839844 L 462.726562 536.886719 C 468.152344 531.464844 468.152344 522.589844 462.726562 517.164062 L 315.777344 370.214844 C 310.351562 364.789062 301.476562 364.789062 296.054688 370.214844 L 149.101562 517.164062 C 143.679688 522.589844 143.679688 531.464844 149.101562 536.886719 Z M 149.101562 536.886719 " transform="matrix(1, 0, 0, -1, 0, 792)" />
<g fill="rgb(11.999512%, 9.999084%, 8.999634%)" fill-opacity="1">
</g>
<g fill="rgb(11.999512%, 9.999084%, 8.999634%)" fill-opacity="1">
</g>
<g fill="rgb(11.999512%, 9.999084%, 8.999634%)" fill-opacity="1">
</g>
<g fill="rgb(11.999512%, 9.999084%, 8.999634%)" fill-opacity="1">
</g>
<g fill="rgb(11.999512%, 9.999084%, 8.999634%)" fill-opacity="1">
</g>
<g fill="rgb(11.999512%, 9.999084%, 8.999634%)" fill-opacity="1">
</g>
<g fill="rgb(11.999512%, 9.999084%, 8.999634%)" fill-opacity="1">
</g>
<g fill="rgb(11.999512%, 9.999084%, 8.999634%)" fill-opacity="1">
</g>
<g fill="rgb(11.999512%, 9.999084%, 8.999634%)" fill-opacity="1">
</g>
<g fill="rgb(11.999512%, 9.999084%, 8.999634%)" fill-opacity="1">
</g>
<g fill="rgb(11.999512%, 9.999084%, 8.999634%)" fill-opacity="1">
</g>
<g fill="rgb(11.999512%, 9.999084%, 8.999634%)" fill-opacity="1">
</g>
<g fill="rgb(11.999512%, 9.999084%, 8.999634%)" fill-opacity="1">
</g>
<g fill="rgb(11.999512%, 9.999084%, 8.999634%)" fill-opacity="1">
</g>
<g fill="rgb(11.999512%, 9.999084%, 8.999634%)" fill-opacity="1">
</g>
<g fill="rgb(11.999512%, 9.999084%, 8.999634%)" fill-opacity="1">
</g>
<g fill="rgb(11.999512%, 9.999084%, 8.999634%)" fill-opacity="1">
</g>
<g fill="rgb(11.999512%, 9.999084%, 8.999634%)" fill-opacity="1">
</g>
<g fill="rgb(11.999512%, 9.999084%, 8.999634%)" fill-opacity="1">
</g>
<g fill="rgb(11.999512%, 9.999084%, 8.999634%)" fill-opacity="1">
</g>
<g fill="rgb(11.999512%, 9.999084%, 8.999634%)" fill-opacity="1">
</g>
<g fill="rgb(11.999512%, 9.999084%, 8.999634%)" fill-opacity="1">
</g>
<g fill="rgb(11.999512%, 9.999084%, 8.999634%)" fill-opacity="1">
</g>
<g fill="rgb(11.999512%, 9.999084%, 8.999634%)" fill-opacity="1">
</g>
<g fill="rgb(11.999512%, 9.999084%, 8.999634%)" fill-opacity="1">
</g>
<g fill="rgb(11.999512%, 9.999084%, 8.999634%)" fill-opacity="1">
</g>
<g fill="rgb(11.999512%, 9.999084%, 8.999634%)" fill-opacity="1">
</g>
<g fill="rgb(11.999512%, 9.999084%, 8.999634%)" fill-opacity="1">
</g>
<g fill="rgb(11.999512%, 9.999084%, 8.999634%)" fill-opacity="1">
</g>
<g fill="rgb(11.999512%, 9.999084%, 8.999634%)" fill-opacity="1">
</g>
<g fill="rgb(11.999512%, 9.999084%, 8.999634%)" fill-opacity="1">
</g>
<g fill="rgb(11.999512%, 9.999084%, 8.999634%)" fill-opacity="1">
</g>
<g fill="rgb(11.999512%, 9.999084%, 8.999634%)" fill-opacity="1">
</g>
<g fill="rgb(11.999512%, 9.999084%, 8.999634%)" fill-opacity="1">
</g>
<g fill="rgb(11.999512%, 9.999084%, 8.999634%)" fill-opacity="1">
</g>
<g fill="rgb(11.999512%, 9.999084%, 8.999634%)" fill-opacity="1">
</g>
<g fill="rgb(11.999512%, 9.999084%, 8.999634%)" fill-opacity="1">
</g>
<g fill="rgb(11.999512%, 9.999084%, 8.999634%)" fill-opacity="1">
</g>
<g fill="rgb(11.999512%, 9.999084%, 8.999634%)" fill-opacity="1">
</g>
<g fill="rgb(11.999512%, 9.999084%, 8.999634%)" fill-opacity="1">
</g>
<g fill="rgb(11.999512%, 9.999084%, 8.999634%)" fill-opacity="1">
</g>
<g fill="rgb(11.999512%, 9.999084%, 8.999634%)" fill-opacity="1">
</g>
<g fill="rgb(11.999512%, 9.999084%, 8.999634%)" fill-opacity="1">
</g>
<g fill="rgb(11.999512%, 9.999084%, 8.999634%)" fill-opacity="1">
</g>
<g fill="rgb(11.999512%, 9.999084%, 8.999634%)" fill-opacity="1">
</g>
<g fill="rgb(11.999512%, 9.999084%, 8.999634%)" fill-opacity="1">
</g>
<g fill="rgb(11.999512%, 9.999084%, 8.999634%)" fill-opacity="1">
</g>
<g fill="rgb(11.999512%, 9.999084%, 8.999634%)" fill-opacity="1">
</g>
<g fill="rgb(11.999512%, 9.999084%, 8.999634%)" fill-opacity="1">
</g>
<g fill="rgb(11.999512%, 9.999084%, 8.999634%)" fill-opacity="1">
</g>
<g fill="rgb(11.999512%, 9.999084%, 8.999634%)" fill-opacity="1">
</g>
<g fill="rgb(11.999512%, 9.999084%, 8.999634%)" fill-opacity="1">
</g>
<g fill="rgb(11.999512%, 9.999084%, 8.999634%)" fill-opacity="1">
</g>
<g fill="rgb(11.999512%, 9.999084%, 8.999634%)" fill-opacity="1">
</g>
<g fill="rgb(11.999512%, 9.999084%, 8.999634%)" fill-opacity="1">
</g>
<g fill="rgb(11.999512%, 9.999084%, 8.999634%)" fill-opacity="1">
</g>
<g fill="rgb(11.999512%, 9.999084%, 8.999634%)" fill-opacity="1">
</g>
<g fill="rgb(11.999512%, 9.999084%, 8.999634%)" fill-opacity="1">
</g>
<g fill="rgb(11.999512%, 9.999084%, 8.999634%)" fill-opacity="1">
</g>
<g fill="rgb(11.999512%, 9.999084%, 8.999634%)" fill-opacity="1">
</g>
<g fill="rgb(11.999512%, 9.999084%, 8.999634%)" fill-opacity="1">
</g>
<g fill="rgb(11.999512%, 9.999084%, 8.999634%)" fill-opacity="1">
</g>
<g fill="rgb(11.999512%, 9.999084%, 8.999634%)" fill-opacity="1">
</g>
<g fill="rgb(11.999512%, 9.999084%, 8.999634%)" fill-opacity="1">
</g>
<g fill="rgb(11.999512%, 9.999084%, 8.999634%)" fill-opacity="1">
</g>
<g fill="rgb(11.999512%, 9.999084%, 8.999634%)" fill-opacity="1">
</g>
<g fill="rgb(11.999512%, 9.999084%, 8.999634%)" fill-opacity="1">
</g>
<g fill="rgb(11.999512%, 9.999084%, 8.999634%)" fill-opacity="1">
</g>
<g fill="rgb(11.999512%, 9.999084%, 8.999634%)" fill-opacity="1">
</g>
<g fill="rgb(11.999512%, 9.999084%, 8.999634%)" fill-opacity="1">
</g>
<g fill="rgb(11.999512%, 9.999084%, 8.999634%)" fill-opacity="1">
</g>
<g fill="rgb(11.999512%, 9.999084%, 8.999634%)" fill-opacity="1">
</g>
<g fill="rgb(11.999512%, 9.999084%, 8.999634%)" fill-opacity="1">
</g>
<g fill="rgb(11.999512%, 9.999084%, 8.999634%)" fill-opacity="1">
</g>
<path fill-rule="evenodd" fill="rgb(11.999512%, 9.999084%, 8.999634%)" fill-opacity="1" stroke-width="0.216" stroke-linecap="butt" stroke-linejoin="miter" stroke="rgb(11.999512%, 9.999084%, 8.999634%)" stroke-opacity="1" stroke-miterlimit="10" d="M 270.324219 490.351562 L 270.269531 436.832031 L 234.4375 436.820312 L 234.46875 509.804688 C 234.46875 523.199219 245.570312 534.203125 258.964844 534.203125 L 310.664062 534.203125 C 315.480469 534.203125 319.410156 538.132812 319.410156 542.949219 L 319.394531 582.707031 L 300.121094 576.957031 C 297.457031 576.214844 295.484375 575.902344 293.433594 577.300781 C 290.492188 579.300781 289.722656 583.328125 291.722656 586.269531 L 336.859375 652.996094 L 382.066406 586.269531 C 384.066406 583.328125 383.296875 579.300781 380.359375 577.300781 C 378.394531 575.964844 376.359375 576.207031 373.9375 576.820312 L 354.351562 582.707031 L 354.328125 523.507812 C 354.320312 523.609375 354.320312 523.609375 354.320312 523.609375 C 354.320312 510.210938 343.507812 499.210938 330.113281 499.113281 L 279.070312 499.101562 C 274.253906 499.101562 270.324219 495.171875 270.324219 490.351562 Z M 270.324219 490.351562 " transform="matrix(1, 0, 0, -1, 0, 792)" />
<g fill="rgb(100%, 100%, 100%)" fill-opacity="1">
</g>
<g fill="rgb(11.999512%, 9.999084%, 8.999634%)" fill-opacity="1">
</g>
<g fill="rgb(11.999512%, 9.999084%, 8.999634%)" fill-opacity="1">
</g>
<g fill="rgb(11.999512%, 9.999084%, 8.999634%)" fill-opacity="1">
</g>
<g fill="rgb(11.999512%, 9.999084%, 8.999634%)" fill-opacity="1">
</g>
<g fill="rgb(11.999512%, 9.999084%, 8.999634%)" fill-opacity="1">
</g>
<g fill="rgb(11.999512%, 9.999084%, 8.999634%)" fill-opacity="1">
</g>
<g fill="rgb(11.999512%, 9.999084%, 8.999634%)" fill-opacity="1">
</g>
<g fill="rgb(100%, 100%, 100%)" fill-opacity="1">
</g>
<g fill="rgb(100%, 100%, 100%)" fill-opacity="1">
</g>
<g fill="rgb(100%, 100%, 100%)" fill-opacity="1">
</g>
<g fill="rgb(11.999512%, 9.999084%, 8.999634%)" fill-opacity="1">
</g>
<g fill="rgb(100%, 100%, 100%)" fill-opacity="1">
</g>
<g fill="rgb(11.999512%, 9.999084%, 8.999634%)" fill-opacity="1">
</g>
<g fill="rgb(11.999512%, 9.999084%, 8.999634%)" fill-opacity="1">
</g>
<g fill="rgb(11.999512%, 9.999084%, 8.999634%)" fill-opacity="1">
</g>
<g fill="rgb(11.999512%, 9.999084%, 8.999634%)" fill-opacity="1">
</g>
<g fill="rgb(11.999512%, 9.999084%, 8.999634%)" fill-opacity="1">
</g>
<g fill="rgb(11.999512%, 9.999084%, 8.999634%)" fill-opacity="1">
</g>
<g fill="rgb(11.999512%, 9.999084%, 8.999634%)" fill-opacity="1">
</g>
<g fill="rgb(11.999512%, 9.999084%, 8.999634%)" fill-opacity="1">
</g>
<g fill="rgb(11.999512%, 9.999084%, 8.999634%)" fill-opacity="1">
</g>
<g fill="rgb(11.999512%, 9.999084%, 8.999634%)" fill-opacity="1">
</g>
<g fill="rgb(11.999512%, 9.999084%, 8.999634%)" fill-opacity="1">
</g>
<g fill="rgb(11.999512%, 9.999084%, 8.999634%)" fill-opacity="1">
</g>
<g fill="rgb(11.999512%, 9.999084%, 8.999634%)" fill-opacity="1">
</g>
<g fill="rgb(11.999512%, 9.999084%, 8.999634%)" fill-opacity="1">
</g>
<g fill="rgb(11.999512%, 9.999084%, 8.999634%)" fill-opacity="1">
</g>
<g fill="rgb(11.999512%, 9.999084%, 8.999634%)" fill-opacity="1">
</g>
<g fill="rgb(11.999512%, 9.999084%, 8.999634%)" fill-opacity="1">
</g>
<g fill="rgb(100%, 100%, 100%)" fill-opacity="1">
</g>
</svg>